<svg id="Layer_1" data-name="Layer 1" xmlns="http://www.w3.org/2000/svg" viewBox="0 0 250 150"><defs><style>.cls-1{fill:#213970;}.cls-2{fill:#2269b2;}</style></defs><path class="cls-1" d="M100.17,110.5l-.16-9.7q-7.28,11.81-22.16,11.8a32.81,32.81,0,0,1-13.91-2.91,30.38,30.38,0,0,1-10.83-8.41A40.62,40.62,0,0,1,46,87.86a57.86,57.86,0,0,1-2.59-18,59.14,59.14,0,0,1,2.19-16.58,38.83,38.83,0,0,1,6.39-13,28.69,28.69,0,0,1,10.27-8.49,30.76,30.76,0,0,1,13.82-3q14.72,0,23.62,12.46V1.81h20.7V110.5Zm-17.46-15A15.68,15.68,0,0,0,95.4,89.15q5.1-6.3,5.1-16.5,0-25.88-17.63-25.87-18.12,0-18.12,24.58,0,10.68,5,17.39A15.46,15.46,0,0,0,82.71,95.46Z"/><path class="cls-2" d="M129.61,148.19V30.93h20.22l.16,9.7q7.27-11.81,22.16-11.81A33,33,0,0,1,186,31.74a30.17,30.17,0,0,1,10.92,8.41A40.8,40.8,0,0,1,204,53.57a57.86,57.86,0,0,1,2.59,17.95,59.14,59.14,0,0,1-2.19,16.58,38.92,38.92,0,0,1-6.39,13,28.69,28.69,0,0,1-10.27,8.49,30.77,30.77,0,0,1-13.83,3q-14.71,0-23.61-12.45v48Zm37.52-53.54q18.12,0,18.12-24.58,0-10.68-5-17.39A15.46,15.46,0,0,0,167.29,46a15.66,15.66,0,0,0-12.69,6.31q-5.1,6.3-5.1,16.49Q149.5,94.66,167.13,94.65Z"/></svg>