<svg id="Layer_1" data-name="Layer 1" xmlns="http://www.w3.org/2000/svg" viewBox="0 0 147.01 147.01"><defs><style>.cls-1{fill:#fff;}.cls-2{fill:#213970;}.cls-3{fill:#2269b2;}</style></defs><circle class="cls-1" cx="73.51" cy="73.51" r="73.51"/><path class="cls-2" d="M106.21,101.86l-.12-7.34q-5.5,8.94-16.77,8.93a24.93,24.93,0,0,1-10.52-2.2,23.1,23.1,0,0,1-8.2-6.36,31,31,0,0,1-5.38-10.16,43.94,43.94,0,0,1-2-13.62,45,45,0,0,1,1.66-12.54,29.17,29.17,0,0,1,4.84-9.84,21.81,21.81,0,0,1,7.77-6.43A23.44,23.44,0,0,1,88,40q11.14,0,17.88,9.43V19.62h15.66v82.24ZM93,90.51a11.87,11.87,0,0,0,9.6-4.8q3.87-4.77,3.86-12.49,0-19.57-13.34-19.57-13.71,0-13.71,18.6,0,8.07,3.78,13.15A11.69,11.69,0,0,0,93,90.48Z" transform="translate(-51.49 -1.49)"/><path class="cls-3" d="M128.49,130.38V41.65h15.3l.12,7.34q5.51-8.93,16.77-8.93a24.94,24.94,0,0,1,10.48,2.21,22.77,22.77,0,0,1,8.26,6.36,30.85,30.85,0,0,1,5.36,10.15,44,44,0,0,1,2,13.59,45,45,0,0,1-1.66,12.54,29.26,29.26,0,0,1-4.84,9.84,21.68,21.68,0,0,1-7.77,6.42A23.19,23.19,0,0,1,162,103.44q-11.13,0-17.87-9.42v36.32Zm28.39-40.51q13.71,0,13.71-18.6,0-8.09-3.78-13.16a11.69,11.69,0,0,0-9.81-5,11.84,11.84,0,0,0-9.6,4.77q-3.85,4.77-3.86,12.48Q143.54,89.87,156.88,89.87Z" transform="translate(-51.49 -1.49)"/></svg>