<svg id="Layer_1" data-name="Layer 1" xmlns="http://www.w3.org/2000/svg" xmlns:xlink="http://www.w3.org/1999/xlink" viewBox="0 0 1296 1296"><defs><style>.cls-1{fill:none;}.cls-2{fill:#f24c5a;}.cls-3{clip-path:url(#clip-path);}.cls-4{clip-path:url(#clip-path-2);}.cls-5{clip-path:url(#clip-path-3);}.cls-6{clip-path:url(#clip-path-4);}.cls-7{clip-path:url(#clip-path-5);}.cls-8{clip-path:url(#clip-path-6);}.cls-9{clip-path:url(#clip-path-7);}.cls-10{clip-path:url(#clip-path-8);}.cls-11{clip-path:url(#clip-path-9);}.cls-12{clip-path:url(#clip-path-10);}.cls-13{clip-path:url(#clip-path-11);}.cls-14{clip-path:url(#clip-path-12);}.cls-15{clip-path:url(#clip-path-13);}.cls-16{clip-path:url(#clip-path-14);}</style><clipPath id="clip-path"><circle class="cls-1" cx="650.48" cy="740.01" r="555.89"/></clipPath><clipPath id="clip-path-2"><path class="cls-1" d="M1060.84,798.94s-7.57-59.69-16.71-77.51a180.12,180.12,0,0,0-10.06-18.75s-20.11-17.83-23.77-29.25c0,0-6.85-16.46-21-17.37,0,0-26.52-16-41.15-126.17,0,0-22.4-102.85-25.14-229.94,0,0-17.37-122-36.57-167.76,0,0-23.77-90.06-105.14-120.23,0,0-25.14-7.77-37.48-4.11,0,0-18.29-11.43-26.06-4.12,0,0-32-9.14-73.6,16.92,0,0-57.59,26.51-88.68,80,0,0-32.45,40.22-42.05,111.08,0,0-10.52,54.85-4.12,116.11,0,0-2.28,93.71-8.23,124.79,0,0-20.11,92.8-21,159.08q-5,1.32-10.46,2.46a216.34,216.34,0,0,1-23.22,3.56A74.94,74.94,0,0,0,395,631.37s-2.74,2.74-7.31-.46c0,0-19.2,5-25.6,17.83q-6.57,7-13.22,13.93-7.8,8.18-15.58,16.24c-3.57,6.1-7.11,12.64-10.51,19.63a291.08,291.08,0,0,0-19.94,54c-7.19,17.49-14.2,36.47-20.65,56.9a717,717,0,0,0-23.56,98.21q-2.92,13.79-6.16,27.91-4.72,20.57-9.79,40.22a24.53,24.53,0,0,0-7.24,7.25c-5.77,9-3.46,18.88-2.9,21q-6.13,16.86-12,35.15c-5.12,16.14-9.55,31.75-13.41,46.75a14.52,14.52,0,0,0-11.24,11.24c-1.35,7.07,3.54,12.22,4,12.68a46.66,46.66,0,0,0-3.26,6.53,45.79,45.79,0,0,0-2.9,10.87,33.67,33.67,0,0,0-8,7.25,35,35,0,0,0-7.25,17.75q-2.4,8.58-4.79,17.14l-19.2,1.37s-9.6,3.66-5,18.29l21.94,10q1.59,9,3.45,18.39,2.09,10.4,4.35,20.29a118.5,118.5,0,0,0,19.94,31.89,54.85,54.85,0,0,0,8.69,14.86c4.3,5.23,9.55,11.62,18.49,13.77a28.56,28.56,0,0,0,16.85-1.37,100.56,100.56,0,0,1,18.66-5.51,99.38,99.38,0,0,1,17.91-1.8s21.95-1.83,25.6-3.66c0,0,24.23,5.94,27.89-5.94,0,0,9.6-17.83,13.71-17.83l30.17-.92a38.39,38.39,0,0,0-1.31,9.2,39.79,39.79,0,0,0,3.81,17.69,71.7,71.7,0,0,0-15.93,14.88,73.75,73.75,0,0,0-14.91,36.4s-2.29,16.46-1.37,30.63q-2.3,24.23-4.57,48.46s-7.43,49-4.17,67.86L972,1487s-18.19-41.77-21.34-44c0,0-6.13-8.19-7.65-16s-9.06-26.63-12.15-32.87c0,0-7.81-15.08-8.57-24,0,0,22.46,1.19,29.29,3.36,0,0,26.09,8,36.89,5.1,0,0,15.5-1.18,28.27-20.42,0,0,10-16.48,10.5-19.87,0,0,14.06-15.84,13.9-35.4,0,0,10.51-24.4,9.7-37.82,0,0,7.59-48,10-81.29,0,0,4.52-76.61,4.85-82.59,0,0,.32-90.51,1.45-94.39,0,0,6-81.29,6.3-92,0,0-1-61.57-6.78-88.73"/></clipPath><clipPath id="clip-path-3"><rect class="cls-1" x="275.8" y="-86.38" width="801.44" height="598.67"/></clipPath><clipPath id="clip-path-4"><path class="cls-1" d="M1062.83,801.91s-7.56-59.69-16.7-77.51a180.12,180.12,0,0,0-10.06-18.75S1016,687.83,1012.3,676.4c0,0-6.86-16.46-21-17.37,0,0-26.51-16-41.14-126.17,0,0-22.4-102.85-25.14-229.93,0,0-17.37-122.06-36.57-167.77,0,0-23.77-90.06-105.14-120.23,0,0-25.14-7.77-37.49-4.11,0,0-18.28-11.43-26-4.11,0,0-32-9.15-73.6,16.91,0,0-57.6,26.51-88.68,80,0,0-32.46,40.22-42.06,111.08,0,0-10.51,54.85-4.11,116.11,0,0-2.29,93.71-8.23,124.8,0,0-20.11,92.79-21,159.08-3.35.87-6.83,1.7-10.46,2.45a216.17,216.17,0,0,1-23.21,3.56A74.94,74.94,0,0,0,397,634.34s-2.75,2.75-7.32-.45c0,0-19.2,5-25.6,17.82q-6.57,7-13.22,13.93-7.8,8.18-15.58,16.24c-3.57,6.1-7.1,12.64-10.51,19.64a290.91,290.91,0,0,0-19.93,54c-7.2,17.49-14.2,36.47-20.66,56.9a716.85,716.85,0,0,0-23.55,98.21q-2.92,13.78-6.16,27.91-4.74,20.57-9.79,40.22a24.54,24.54,0,0,0-7.25,7.25c-5.77,9-3.45,18.88-2.9,21q-6.14,16.86-12,35.16-7.67,24.19-13.41,46.75a14.5,14.5,0,0,0-11.23,11.23c-1.36,7.07,3.53,12.22,4,12.68a44.57,44.57,0,0,0-3.26,6.53,45.32,45.32,0,0,0-2.9,10.87,33.88,33.88,0,0,0-8,7.25,35,35,0,0,0-7.25,17.76q-2.39,8.57-4.78,17.13l-19.2,1.37s-9.6,3.66-5,18.29l21.94,10.06q1.58,9,3.45,18.38,2.09,10.39,4.35,20.29a117.71,117.71,0,0,0,19.93,31.89,54.93,54.93,0,0,0,8.7,14.86c4.3,5.24,9.55,11.63,18.48,13.77a28.59,28.59,0,0,0,16.86-1.37,100.32,100.32,0,0,1,36.57-7.31s21.94-1.83,25.6-3.66c0,0,24.23,5.94,27.88-5.94,0,0,9.6-17.83,13.72-17.83l30.17-.92a38.94,38.94,0,0,0-1.32,9.2,39.73,39.73,0,0,0,3.82,17.69A71.49,71.49,0,0,0,365.75,1306a73.79,73.79,0,0,0-14.91,36.4s-2.29,16.46-1.38,30.63q-2.28,24.23-4.57,48.46s-7.42,49-4.16,67.86l633.25.54s-18.2-41.77-21.34-44.05c0,0-6.13-8.19-7.65-15.95s-9.06-26.63-12.15-32.87c0,0-7.82-15.08-8.58-24,0,0,22.46,1.2,29.3,3.37,0,0,26.09,8,36.89,5.09,0,0,15.49-1.18,28.26-20.41,0,0,10-16.49,10.51-19.88,0,0,14.06-15.84,13.9-35.4,0,0,10.5-24.4,9.69-37.82,0,0,7.6-48,10-81.29,0,0,4.53-76.61,4.85-82.59,0,0,.33-90.5,1.46-94.38,0,0,6-81.3,6.3-92,0,0-1-61.57-6.79-88.72"/></clipPath><clipPath id="clip-path-5"><circle class="cls-1" cx="1964.58" cy="740.05" r="553.36"/></clipPath><clipPath id="clip-path-6"><path class="cls-1" d="M2281.77,1496s22.65-27.61,11.48-79.72c0,0-2.79-14.89-28.85-41.57,0,0,.62-8.68-3.1-14.89,0,0,1.24-13.34-3.1-16.75l-2.17-10.23s1.55-1.56-3.73-4.35a32.17,32.17,0,0,0,5.28-19.85s-2.17-26.06-7.76-38.46c0,0,6.83-5.28,10.55-11.79l9-7.14s5.27,0,5-27.6c0,0,36.6-18.93,40-32.88,0,0,3.42-7.14,3.42-13.34,0,0,32.57-84.07,36-98,0,0,31-104.85,37.22-149.21,0,0,7.45-118.8,7.76-128.42,0,0,5.27-84.68,5.27-94.61,0,0,3.72-73.82-14.27-101.74,0,0-14.27-33.81-37.53-50.87,0,0-30.09-27.61-45.91-32.88,0,0-33.81-9.31-63.59-13.34,0,0-74.76-41-110.74-50.56,0,0-2.79-1.87-4-8.69,0,0-35.68-50.25-43.43-56.15,0,0-8.38-3.41-10.86-.93,0,0-11.16-39.39-10.23-51.49,0,0-3.73-38.15-.93-50.87,0,0,17.68-.62,19.23-14,0,0,4.34-9.93,6.82-11.79,0,0,10.55-18,4-43.73,0,0,1.87-22.34-15.2-33.19,0,0,4.35-41.88,3.42-53.67,0,0-10.24-62-61.73-79.1-2.25-10.11-8.56-30.75-26.73-42-8-4.91-15.84-6.56-27.15-8.93a162.85,162.85,0,0,0-39.05-3c-22.48.8-39.18,5.42-52.82,9.29-11.42,3.24-25.26,7.25-42.15,15.92a196.92,196.92,0,0,0-37.44,25,118.78,118.78,0,0,0-28.64,26.77c-8.68,11.41-16.11,21.16-15.62,34.59.39,10.85,5.76,19.06,9,23.25a110.45,110.45,0,0,0,14.27,71s8.69,9.61,9.62,13.34c0,0-13,12.09-18.3,24.5l-3.72,1.24s.62,8.38,2.17,11.48c0,0,8.06,1.86,8.37,4.34l2.79,7.14,6.83.31s0,14,12.72,30.09c0,0,6.2,28.22,6.2,36,0,0,5.58,28.23,21.4,48.08,0,0,13,20.47,24.2,29.78,0,0,14.27,17.68,15.82,24.5,0,0,9,13.34,10.86,16.44,0,0-4,9.93-3.73,16.44l-7.75,10.55s-30.09,10.24-33.81,14c0,0-71,14.27-89.65,26.05,0,0-60.49,29.16-62.35,32.58,0,0-33.5,15.51-33.81,24.81,0,0-25.13,27.3-30.09,51.18,0,0-21.71,28.23-22.64,56.15,0,0,3.1,19.54-.31,24.81,0,0-15.51,19.86-17.37,75.38,0,0-6.21,72.59-9,88.72,0,0-7.13,62.35-9,68.86,0,0-9.3,58-7.44,65.76,0,0,3.1,18.61,5.58,25.13,0,0-9.3,36.29.93,64.21,0,0,14.89,31.64,18,49,0,0,7.75,31.33,27.91,32.88,0,0,41.88,2.48,48.39,7.13,0,0,23,9.62,36.61,5,0,0,35.67,4.65,41.25,5.27,0,0,3.41,19.23,1.55,23.57,0,0,2.48,7.76,9.93,9.62,0,0-12.1,37.53-11.79,42.19,0,0-.31,1.55,3.1,3.41,0,0-3.41,7.44-7.13,9.62,0,0-18.92,18.3-21.4,29.15,0,0-12.41,15.82-14.58,17.69,0,0-24.82,25.12-25.75,26.67,0,0-23.57,27.61-23.26,45.91l-2.49,7.45s-3.41,8.68-.31,13.33c0,0-.31,6.52-1.24,8.69,0,0-1.24,26.68,11.48,39.39,0,0-5.89,16.44-4,22Z"/></clipPath><clipPath id="clip-path-7"><rect class="cls-1" x="1645.94" y="-63.53" width="552.2" height="383.56"/></clipPath><clipPath id="clip-path-8"><path class="cls-1" d="M2280.61,1495.77s22.64-27.6,11.47-79.72c0,0-2.79-14.89-28.85-41.56,0,0,.62-8.69-3.1-14.89,0,0,1.24-13.34-3.1-16.75l-2.17-10.24s1.55-1.55-3.72-4.34a32.24,32.24,0,0,0,5.27-19.85s-2.17-26.06-7.75-38.47c0,0,6.82-5.27,10.54-11.79l9-7.13s5.27,0,5-27.61c0,0,36.6-18.92,40-32.88,0,0,3.41-7.13,3.41-13.34,0,0,32.57-84.06,36-98,0,0,31-104.84,37.22-149.2,0,0,7.45-118.81,7.76-128.42,0,0,5.27-84.69,5.27-94.61,0,0,3.73-73.83-14.27-101.75,0,0-14.27-33.81-37.53-50.87,0,0-30.09-27.61-45.91-32.88,0,0-33.81-9.3-63.59-13.34,0,0-74.76-40.94-110.74-50.56,0,0-2.79-1.86-4-8.68,0,0-35.67-50.26-43.43-56.15,0,0-8.37-3.41-10.86-.93,0,0-11.16-39.39-10.23-51.49,0,0-3.72-38.16-.93-50.87,0,0,17.68-.62,19.23-14,0,0,4.34-9.93,6.82-11.79,0,0,10.55-18,4-43.74,0,0,1.86-22.33-15.2-33.19,0,0,4.34-41.88,3.41-53.66,0,0-10.24-62-61.73-79.1-2.25-10.12-8.56-30.76-26.73-42-8-4.91-15.84-6.56-27.15-8.92a163.13,163.13,0,0,0-39-3c-22.48.81-39.18,5.43-52.81,9.3-11.43,3.24-25.26,7.24-42.16,15.91a197.25,197.25,0,0,0-37.44,25,118.78,118.78,0,0,0-28.64,26.78c-8.68,11.41-16.1,21.16-15.62,34.59.4,10.84,5.76,19,9,23.25a110.24,110.24,0,0,0,14.27,71s8.68,9.62,9.61,13.34c0,0-13,12.1-18.3,24.51l-3.72,1.24s.62,8.37,2.17,11.47c0,0,8.06,1.87,8.37,4.35l2.8,7.13,6.82.31s0,14,12.72,30.09c0,0,6.2,28.23,6.2,36,0,0,5.59,28.23,21.41,48.08,0,0,13,20.48,24.19,29.78,0,0,14.27,17.68,15.82,24.51,0,0,9,13.34,10.86,16.44,0,0-4,9.92-3.72,16.44l-7.76,10.55s-30.09,10.23-33.81,13.95c0,0-71,14.27-89.65,26.06,0,0-60.48,29.16-62.35,32.57,0,0-33.5,15.51-33.81,24.82,0,0-25.12,27.29-30.09,51.18,0,0-21.71,28.23-22.64,56.14,0,0,3.1,19.55-.31,24.82,0,0-15.51,19.85-17.37,75.38,0,0-6.21,72.58-9,88.71,0,0-7.13,62.35-9,68.87,0,0-9.31,58-7.45,65.76,0,0,3.1,18.61,5.59,25.12,0,0-9.31,36.3.93,64.21,0,0,14.89,31.64,18,49,0,0,7.75,31.33,27.92,32.88,0,0,41.87,2.49,48.39,7.14,0,0,22.95,9.62,36.6,5,0,0,35.67,4.66,41.25,5.28,0,0,3.42,19.23,1.56,23.57,0,0,2.48,7.76,9.92,9.62,0,0-12.1,37.53-11.79,42.18,0,0-.31,1.55,3.11,3.42,0,0-3.42,7.44-7.14,9.61,0,0-18.92,18.3-21.4,29.16,0,0-12.41,15.82-14.58,17.68,0,0-24.82,25.13-25.75,26.68,0,0-23.57,27.6-23.26,45.91l-2.48,7.44s-3.41,8.69-.31,13.34c0,0-.31,6.51-1.24,8.68,0,0-1.24,26.68,11.47,39.4,0,0-5.89,16.44-4,22Z"/></clipPath><clipPath id="clip-path-9"><circle class="cls-1" cx="648.87" cy="2059.04" r="553.36"/></clipPath><clipPath id="clip-path-10"><path class="cls-1" d="M22,2397.35S33,2578,54,2613H1268.9l-75-987.74L950.55,1596.9,837.12,1334.35l-148.2-32L527,1415.77l22,150.94-169.24-8.23L259,1649l6.4,176.56,13.72,133.56-83.24,66.78L28.43,2145.78,2.81,2335.15a85.49,85.49,0,0,1,18.92,42.21A81,81,0,0,1,22,2397.35Z"/></clipPath><clipPath id="clip-path-11"><path class="cls-1" d="M1223.1,2613s-4.93-9.3-12.63-15.47c0,0,17-19.1,19.72-22.49a55.5,55.5,0,0,0,15.1-36.66s-4-59.47-9.86-77.65c0,0-9.55-87.5-10.17-90.58,0,0-14.48-100.14-17.87-108.77l-9.24-73-11.4-113.08s-20.34-195-21-199.35c0,0-12.32-101.37-34.2-147,0,0-6.47-24.34-20-34.2,0,0-12.64-6.47-16.64-10.78,0,0-12.33-8.94-32-13,0,0-33.27-6.77-43.75-5.54,0,0-16,3.08-39.13-3.39,0,0-5.54-11.09-8.93-8.32,0,0-7.71,3.08-7.71,4.31,0,0-6.47-2.46-16.94,1.85a57.72,57.72,0,0,1-24.64-10.08,56.88,56.88,0,0,1-11-10.51,48.4,48.4,0,0,1-3.15-13.14,49.46,49.46,0,0,1,3.08-22.34s10.47-34.51,1.23-54.54c0,0-21.57-74.56-44.37-113.69,0,0-40.36-74-75.49-89.36,0,0-67.78-39.44-123.24-10.78,0,0-35.44,8.32-40.67,36.36,0,0-21.26,15.71-27.73,30.81,0,0-17.88,29.88-16.95,81.65,0,0,3.08,31.43,5.24,38.82,0,0,1.23,27.11,18.48,61.62,0,0,15.1,50.84,33.9,65.94,0,0,13.86,23.11,16.33,27.11,0,0,18.17,22.8,25.88,28.35,0,0-21.57,6.78-23.11,9.24,0,0-23.42,10.17-26.19,11.71,0,0-14.48,1.54-17.56,6.47,0,0-7.09,6.16-7.4,8.94,0,0-16.64,5.24-16.94,6.78,0,0,5.54-46.22,4.93-60.7,0,0-7.71-54.23-52.38-82.58,0,0-57.31-40.36-100.45-41,0,0-60.39-1.23-82.27,21.57,0,0-62.54,23.42-77.64,97.06,0,0,.62,45.29,6.16,86.89,0,0-8.32-1.54-9.86,4,0,0-.61,11.4,0,13.87,0,0-2.77,12.94-3.08,12.63,0,0-.61,18.79,3.39,29.58,0,0,6.78,23.41,6.78,27.42a26.4,26.4,0,0,0,11.71,20s9.55,3.39,15.4,3.69c0,0,4,13.56,4.93,24.35,0,0,3.08,11.4,3.39,19.72,0,0,3.08,38.51,3.08,42.51,0,0-8.32,13-12.32,27.12,0,0,0,10.78-9.86,11.09,0,0-24.65,9.24-32.66,17.87,0,0-10.78,6.78-20.95,7.4,0,0-19.72,0-23.11,6.47,0,0-21.57,11.09-24.65,9.24,0,0-27.73,7.39-29,19.72,0,0-.93,7.09-11.71,3.7,0,0-19.1-2.47-41.9,18.48,0,0-17.26,12.64-18.8,21,0,0-4.62,5.23-7.7,5.85A12.55,12.55,0,0,0,84,2127.35s-8.32,15.41-12.94,18.18c0,0-9.86,6.16-9.86,23.42,0,0-21.57,25.26-16.33,56.69,0,0-2.16,18.18-5.55,20.34,0,0-8.32,19.41-5.55,39.74,0,0-9.55,33.28-12.32,37.59a33,33,0,0,0-1.23,30.51L24.85,2457l10.29,156Z"/></clipPath><clipPath id="clip-path-12"><rect class="cls-1" x="82.8" y="1319.21" width="1128.73" height="526.47"/></clipPath><clipPath id="clip-path-13"><path class="cls-1" d="M21.16,2396.35s11,180.64,32,215.65H1268l-75-987.75L949.68,1595.9,836.25,1333.35l-148.2-32L526.13,1414.76l22,151-169.24-8.24L258.09,1648l6.4,176.56,13.73,133.56L195,2024.94,27.56,2144.78,1.94,2334.14a85.54,85.54,0,0,1,18.92,42.22A81.57,81.57,0,0,1,21.16,2396.35Z"/></clipPath><clipPath id="clip-path-14"><path class="cls-1" d="M1222.23,2612s-4.93-9.31-12.63-15.47c0,0,17-19.1,19.72-22.49a55.51,55.51,0,0,0,15.1-36.67s-4-59.46-9.86-77.64c0,0-9.55-87.51-10.17-90.59,0,0-14.48-100.13-17.87-108.76l-9.24-73-11.4-113.08s-20.34-195-21-199.35c0,0-12.33-101.37-34.21-147,0,0-6.47-24.34-20-34.2,0,0-12.63-6.47-16.64-10.79,0,0-12.33-8.93-32-12.94,0,0-33.28-6.78-43.76-5.54,0,0-16,3.08-39.13-3.39,0,0-5.54-11.1-8.93-8.32,0,0-7.71,3.08-7.71,4.31,0,0-6.47-2.46-16.94,1.85a57.69,57.69,0,0,1-24.63-10.09,56.39,56.39,0,0,1-11-10.51,48.79,48.79,0,0,1-3.15-13.13,49.53,49.53,0,0,1,3.08-22.35s10.47-34.51,1.23-54.53c0,0-21.57-74.57-44.37-113.7,0,0-40.36-73.94-75.49-89.35,0,0-67.78-39.44-123.24-10.78,0,0-35.44,8.32-40.67,36.35,0,0-21.26,15.72-27.73,30.82,0,0-17.87,29.88-16.95,81.65,0,0,3.08,31.42,5.24,38.82,0,0,1.23,27.11,18.49,61.62,0,0,15.09,50.84,33.89,65.94,0,0,13.86,23.11,16.33,27.11,0,0,18.18,22.8,25.88,28.35,0,0-21.57,6.78-23.11,9.24,0,0-23.42,10.17-26.19,11.71,0,0-14.48,1.54-17.56,6.47,0,0-7.09,6.16-7.4,8.93,0,0-16.63,5.24-16.94,6.78,0,0,5.54-46.21,4.93-60.7,0,0-7.71-54.22-52.38-82.57,0,0-57.31-40.36-100.45-41,0,0-60.39-1.23-82.26,21.57,0,0-62.55,23.42-77.65,97.05,0,0,.62,45.3,6.16,86.89,0,0-8.31-1.54-9.86,4,0,0-.61,11.4,0,13.86,0,0-2.77,12.94-3.08,12.64,0,0-.61,18.79,3.39,29.58,0,0,6.78,23.41,6.78,27.42a26.37,26.37,0,0,0,11.71,20s9.55,3.39,15.41,3.7c0,0,4,13.56,4.92,24.34,0,0,3.09,11.4,3.39,19.72,0,0,3.09,38.52,3.09,42.52,0,0-8.32,12.94-12.33,27.12,0,0,0,10.78-9.86,11.09,0,0-24.65,9.24-32.66,17.87,0,0-10.78,6.78-21,7.39,0,0-19.72,0-23.11,6.47,0,0-21.57,11.1-24.65,9.25,0,0-27.73,7.39-29,19.72,0,0-.93,7.08-11.71,3.69,0,0-19.1-2.46-41.9,18.49,0,0-17.26,12.63-18.8,21,0,0-4.62,5.24-7.7,5.86a12.55,12.55,0,0,0-9.55,11.09s-8.32,15.4-12.94,18.18c0,0-9.86,6.16-9.86,23.41,0,0-21.57,25.27-16.33,56.7,0,0-2.16,18.18-5.55,20.33,0,0-8.32,19.41-5.54,39.75,0,0-9.56,33.28-12.33,37.59a33.06,33.06,0,0,0-1.23,30.5L24,2456l10.29,156Z"/></clipPath><image id="image" width="6016" height="4016" xlink:href="../REQUISITOS/shutterstock_1921739885.jpg"/><image id="image-2" width="5881" height="3926" xlink:href="../REQUISITOS/shutterstock_1388870318.jpg"/><image id="image-3" width="5049" height="3366" xlink:href="../REQUISITOS/shutterstock_316297508.jpg"/></defs><circle class="cls-2" cx="650.48" cy="740.01" r="555.89"/><g class="cls-3"><g class="cls-4"><use transform="translate(-715.78 -150.35) scale(0.41)" xlink:href="#image"/></g></g><g class="cls-5"><g class="cls-6"><use transform="translate(-713.78 -147.38) scale(0.41)" xlink:href="#image"/></g></g><g class="cls-7"><g class="cls-8"><use transform="translate(309.73 -281) scale(0.45)" xlink:href="#image-2"/></g></g><g class="cls-9"><g class="cls-10"><use transform="translate(308.56 -281.23) scale(0.45)" xlink:href="#image-2"/></g></g><g class="cls-11"><g class="cls-12"><g class="cls-13"><use transform="translate(-432.93 1129.9) scale(0.55)" xlink:href="#image-3"/></g></g></g><g class="cls-14"><g class="cls-15"><g class="cls-16"><use transform="translate(-433.8 1128.9) scale(0.55)" xlink:href="#image-3"/></g></g></g></svg>