<?xml version="1.0" encoding="utf-8"?>
<!-- Generator: Adobe Illustrator 25.0.0, SVG Export Plug-In . SVG Version: 6.00 Build 0)  -->
<svg version="1.1" id="Layer_1" xmlns="http://www.w3.org/2000/svg" xmlns:xlink="http://www.w3.org/1999/xlink" x="0px" y="0px"
	 viewBox="0 0 1920 1080" style="enable-background:new 0 0 1920 1080;" xml:space="preserve">
<style type="text/css">
	.st0{fill:#ffffff;}
	.st1{fill:#ffffff;}
	<!-- .st0{fill:#213970;}
	.st1{fill:#2269B2;} -->
</style>
<g>
	<path class="st0" d="M230.5,475.9l-0.6-36.5c-18.2,29.6-46,44.4-83.3,44.4c-19.1,0-36.5-3.6-52.3-10.9
		c-15.8-7.3-29.4-17.8-40.7-31.6c-11.4-13.8-20.3-30.6-26.7-50.5c-6.5-19.9-9.7-42.3-9.7-67.5c0-22.7,2.7-43.5,8.2-62.3
		c5.5-18.8,13.5-35.2,24-48.9c10.5-13.8,23.4-24.4,38.6-31.9c15.2-7.5,32.5-11.2,52-11.2c36.9,0,66.5,15.6,88.8,46.8V67.3h77.8
		v408.5H230.5z M164.8,419.3c19,0,35-7.9,47.7-23.7c12.8-15.8,19.2-36.5,19.2-62c0-64.8-22.1-97.3-66.3-97.3
		c-45.4,0-68.1,30.8-68.1,92.4c0,26.7,6.3,48.5,18.8,65.4C128.8,410.9,145,419.3,164.8,419.3z"/>
	<path class="st0" d="M343,140.9V67.3h79v73.6H343z M343,475.9V176.8h79v299.1H343z"/>
	<path class="st0" d="M637.8,267.3c-2-14.6-7.3-24.8-15.8-30.7c-8.5-5.9-21.9-8.8-40.1-8.8c-15,0-26.5,1.9-34.7,5.8
		c-8.1,3.9-12.2,10.2-12.2,19.1c0,8.9,4,15.7,12.2,20.4c8.1,4.7,20.3,9.2,36.5,13.7c17,4.9,33.2,9.2,48.6,13.1
		c15.4,3.9,29,8,40.7,12.5c15.8,6.5,28,15.3,36.5,26.4c8.5,11.2,12.8,26.4,12.8,45.9c0,31.2-11,55.5-33.1,73
		c-22.1,17.4-54.6,26.1-97.6,26.1c-46.2,0-81.6-9.7-106.1-29.2c-24.5-19.5-37.2-44.4-38-74.8H529c0,14.2,5.5,25.1,16.4,32.8
		c10.9,7.7,26.1,11.6,45.6,11.6c14.2,0,26.5-2.3,37.1-7c10.5-4.7,15.8-12.7,15.8-24c0-10.5-4.8-18-14.3-22.5
		c-9.5-4.5-20.8-8.3-33.7-11.5c-25.1-6.1-45.4-11.6-60.8-16.4c-15.4-4.9-28.4-10.7-38.9-17.6c-14.2-8.9-24-19-29.5-30.4
		c-5.5-11.3-8.2-23.7-8.2-37.1c0-12.6,2.2-24.3,6.7-35.3c4.5-10.9,11.7-20.4,21.9-28.3c10.1-7.9,23.2-14.1,39.2-18.5
		c16-4.5,35.4-6.7,58.1-6.7c43.4,0,75.3,8.3,95.8,24.9c20.5,16.6,31.7,41.1,33.7,73.6H637.8z"/>
	<path class="st0" d="M910.8,278.9h73.6V364c0,15.8-2.3,30.9-7,45.3c-4.7,14.4-12,27.2-21.9,38.3c-9.9,11.2-22.5,20-37.7,26.4
		c-15.2,6.5-33.3,9.7-54.4,9.7c-21.9,0-40.5-3.2-55.9-9.7c-15.4-6.5-28.1-15.2-38-26.1c-9.9-10.9-17.1-23.7-21.6-38.3
		c-4.5-14.6-6.7-30-6.7-46.2V95.9H819v80.9h165.4v55.9H819v122.8c0,19.1,3.5,33.7,10.6,44.1c7.1,10.3,18.7,15.5,35,15.5
		c15.8,0,27.5-5.1,35-15.2c7.5-10.1,11.2-24.5,11.2-43.2V278.9z"/>
	<path class="st0" d="M1016.5,475.9V176.8h74.2v35.9c6.5-10.1,13.3-18,20.4-23.7c7.1-5.7,14.4-10,21.9-13.1c7.5-3,15.1-5,22.8-5.8
		c7.7-0.8,15.6-1.2,23.7-1.2h10.3v80.9c-7.3-1.2-14.6-1.8-21.9-1.8c-48.2,0-72.3,24.1-72.3,72.3v155.6H1016.5z"/>
	<path class="st0" d="M1213.5,140.9V67.3h79v73.6H1213.5z M1213.5,475.9V176.8h79v299.1H1213.5z"/>
	<path class="st0" d="M1498,278.9h73.6V364c0,15.8-2.3,30.9-7,45.3c-4.7,14.4-12,27.2-21.9,38.3c-9.9,11.2-22.5,20-37.7,26.4
		c-15.2,6.5-33.3,9.7-54.4,9.7c-21.9,0-40.5-3.2-55.9-9.7c-15.4-6.5-28.1-15.2-38-26.1c-9.9-10.9-17.1-23.7-21.6-38.3
		c-4.5-14.6-6.7-30-6.7-46.2V95.9h77.8v80.9h165.4v55.9h-165.4v122.8c0,19.1,3.5,33.7,10.6,44.1c7.1,10.3,18.7,15.5,35,15.5
		c15.8,0,27.5-5.1,35-15.2c7.5-10.1,11.2-24.5,11.2-43.2V278.9z"/>
	<path class="st0" d="M1750.9,483.8c-24.3,0-46-3.9-65-11.5c-19.1-7.7-35.2-18.4-48.3-32.2c-13.2-13.8-23.2-30.4-30.1-49.9
		c-6.9-19.5-10.3-40.7-10.3-63.8c0-23.5,3.5-45,10.6-64.4c7.1-19.5,17.3-36.1,30.7-49.9c13.4-13.8,29.5-24.4,48.3-31.9
		c18.8-7.5,40.2-11.2,64.1-11.2c23.5,0,44.6,3.8,63.2,11.2c18.6,7.5,34.5,18,47.7,31.6c13.2,13.6,23.3,30.1,30.4,49.5
		c7.1,19.5,10.6,41.1,10.6,65c0,23.9-3.6,45.5-10.6,64.7c-7.1,19.3-17.2,35.8-30.4,49.5c-13.2,13.8-29.2,24.4-48,31.9
		C1795,480,1774,483.8,1750.9,483.8z M1750.9,417.5c48.2,0,72.3-30.4,72.3-91.2c0-60.4-24.1-90.6-72.3-90.6
		c-48.2,0-72.3,30.2-72.3,90.6C1678.6,387.1,1702.7,417.5,1750.9,417.5z"/>
	<path class="st1" d="M23.2,1012.7V571.9h76l0.6,36.5c18.2-29.6,46-44.4,83.3-44.4c18.6,0,36,3.6,52,10.9c16,7.3,29.7,17.8,41,31.6
		c11.3,13.8,20.3,30.6,26.7,50.5c6.5,19.9,9.7,42.4,9.7,67.5c0,22.7-2.7,43.5-8.2,62.3c-5.5,18.8-13.5,35.2-24,48.9
		c-10.5,13.8-23.4,24.4-38.6,31.9c-15.2,7.5-32.5,11.2-52,11.2c-36.9,0-66.5-15.6-88.8-46.8v180.6H23.2z M164.2,811.4
		c45.4,0,68.1-30.8,68.1-92.4c0-26.8-6.3-48.5-18.8-65.4c-12.6-16.8-28.8-25.2-48.6-25.2c-19.1,0-35,7.9-47.7,23.7
		C104.3,668,98,688.6,98,714.2C98,779,120,811.4,164.2,811.4z"/>
	<path class="st1" d="M531.4,831.5c-5.7,13.4-15.9,23.8-30.7,31.3c-14.8,7.5-31.5,11.2-50.2,11.2c-15.8,0-30.4-2.5-43.8-7.6
		c-13.4-5.1-24.9-12.4-34.7-21.9c-9.7-9.5-17.3-20.9-22.8-34c-5.5-13.2-8.2-28.1-8.2-44.7V571.9h79v182.4
		c0,37.3,16.8,55.9,50.5,55.9c18.2,0,32.9-5.3,44.1-15.8c11.1-10.5,16.7-23.9,16.7-40.1V571.9h79v307c0,21.1-3.6,39.9-10.6,56.5
		c-7.1,16.6-16.8,30.6-29.2,41.9c-12.4,11.3-27,20.1-43.8,26.1c-16.8,6.1-34.8,9.1-53.8,9.1c-44.2,0-77.2-11.1-99.1-33.4
		c-21.9-22.3-32.8-52.9-32.8-91.8h73.6c0,17.8,5.2,31.8,15.5,41.9c10.3,10.1,25.8,15.2,46.5,15.2c7.3,0,14.2-1.5,20.7-4.6
		c6.5-3,12.3-7.3,17.3-12.8c5.1-5.5,9.1-12.3,12.2-20.4c3-8.1,4.6-17,4.6-26.7V831.5z"/>
	<path class="st1" d="M997.1,871V689.9c0-18.2-4.3-33-12.8-44.4c-8.5-11.3-19.9-17-34-17c-14.6,0-26.7,6.1-36.2,18.2
		c-9.5,12.2-14.3,27.4-14.3,45.6V871h-79V691.1c0-12.2-0.8-22.1-2.4-29.8c-1.6-7.7-4.4-13.8-8.2-18.2c-3.9-4.5-8.8-7.6-14.9-9.4
		c-6.1-1.8-13.4-2.7-21.9-2.7c-32,0-48,19.5-48,58.4V871h-79V571.9h74.2v43.8c10.1-19.9,22.3-33.4,36.5-40.7
		c14.2-7.3,31.2-10.9,51.1-10.9c10.1,0,19.1,0.8,27.1,2.4c7.9,1.6,15,4.4,21.3,8.2c6.3,3.9,12.3,8.8,17.9,14.9
		c5.7,6.1,11.3,13.4,17,21.9c8.1-16.6,18.8-28.7,32.2-36.2c13.4-7.5,29.6-11.2,48.6-11.2c15,0,28.8,2.5,41.3,7.6
		c12.6,5.1,23.3,12.2,32.2,21.3c8.9,9.1,15.9,19.8,21,31.9c5.1,12.2,7.6,25.1,7.6,38.9V871H997.1z"/>
	<path class="st1" d="M1177.1,742.1c1.2,22.7,7.8,40.7,19.8,54.1c11.9,13.4,27.7,20.1,47.1,20.1c13,0,24.4-2.9,34.3-8.8
		c9.9-5.9,16.3-14.1,19.2-24.6h81.5c-9.3,30.8-25.5,54.5-48.6,71.1c-23.1,16.6-50.7,24.9-82.7,24.9c-99.7,0-149.6-54.3-149.6-162.9
		c0-23.1,3.2-44,9.7-62.6c6.5-18.6,15.9-34.7,28.3-48c12.4-13.4,27.5-23.6,45.3-30.7c17.8-7.1,38.3-10.6,61.4-10.6
		c46.2,0,81.2,14.8,104.9,44.4c23.7,29.6,35.6,74.2,35.6,133.7H1177.1z M1301.7,692.3c-0.4-10.9-2.3-20.6-5.8-28.9
		c-3.4-8.3-8-15.2-13.7-20.7c-5.7-5.5-12.2-9.5-19.5-12.2c-7.3-2.6-14.8-4-22.5-4c-15.8,0-29.5,5.8-41,17.3
		c-11.6,11.6-18.1,27.7-19.8,48.3H1301.7z"/>
</g>
</svg>
