<?xml version="1.0" encoding="utf-8"?>
<!-- Generator: Adobe Illustrator 25.0.0, SVG Export Plug-In . SVG Version: 6.00 Build 0)  -->
<svg version="1.1" id="Layer_1" xmlns="http://www.w3.org/2000/svg" xmlns:xlink="http://www.w3.org/1999/xlink" x="0px" y="0px"
	 viewBox="0 0 200 200" style="enable-background:new 0 0 200 200;" xml:space="preserve">
<style type="text/css">
	.st0{fill:#FFFFFF;}
</style>
<g>
	<path class="st0" d="M183.2,33.5c-1.3,0-2.7,0-4,0H19.5c-1.7-0.1-3.5,0-5.2,0.2c-4.8,0.9-8.7,4.5-10,9.3c-0.3,1.5-0.5,2.9-0.4,4.4
		v72.9c0.1,1,1,1.8,2,1.7c0.9-0.1,1.6-0.8,1.7-1.7V65.6h161.2c2.2,0,4.4,0,6.6,0h0.3c1-0.1,1.8-1,1.7-2c-0.1-0.9-0.8-1.6-1.7-1.7
		H12.6c-1.6,0-3.4,0-5,0V47.5c-0.1-1.1,0-2.2,0.2-3.2c1-4.1,4.6-7.1,8.9-7.1c4,0,8.1,0,12.1,0h140.3c4.7,0,9.3,0,14,0
		c5.1,0,9.2,4.2,9.2,9.3c0,0.1,0,0.1,0,0.2c0,2.3,0,4.6,0,6.9v100.1c0,3.2-1.7,6.2-4.4,7.9c-2.1,1.1-4.5,1.5-6.8,1.3H17.2
		c-1.1,0-2.2-0.1-3.2-0.4c-3.8-1.3-6.3-4.8-6.3-8.8c0-4.6,0-9.1,0-13.7c-0.1-1-1-1.8-2-1.7c-0.9,0.1-1.6,0.8-1.7,1.7
		c0,4.7-0.1,9.4,0,14.1c0.2,7.1,6.1,12.6,13.1,12.5h164.5c3.2,0.2,6.5-0.6,9.2-2.4c3.4-2.4,5.3-6.3,5.4-10.5c0-0.6,0-1.1,0-1.6V67
		c0-6.8,0-13.7,0-20.5C196.2,39.3,190.4,33.5,183.2,33.5C183.2,33.5,183.2,33.5,183.2,33.5z"/>
	<path class="st0" d="M57.4,51.4h74.5c3.4,0,6.9,0.1,10.3,0h0.1c1-0.1,1.8-1,1.7-2c-0.1-0.9-0.8-1.6-1.7-1.7H67.9
		c-3.4,0-6.9-0.1-10.3,0h-0.1c-1,0.1-1.8,1-1.7,2C55.8,50.6,56.5,51.3,57.4,51.4z"/>
	<path class="st0" d="M95.1,90.8h39c1-0.1,1.8-1,1.7-2c-0.1-0.9-0.8-1.6-1.7-1.7h-39c-1,0.1-1.8,1-1.7,2
		C93.5,90.1,94.2,90.8,95.1,90.8z"/>
	<path class="st0" d="M95.1,123.5h74c3.4,0,6.9,0.1,10.3,0h0.2c1-0.1,1.8-1,1.7-2c-0.1-0.9-0.8-1.6-1.7-1.7h-74
		c-3.4,0-6.9-0.1-10.3,0h-0.2c-1,0.1-1.8,1-1.7,2C93.5,122.7,94.2,123.4,95.1,123.5z"/>
	<path class="st0" d="M95.1,141.8h70.6c1-0.1,1.8-1,1.7-2c-0.1-0.9-0.8-1.6-1.7-1.7H95.1c-1,0.1-1.8,1-1.7,2
		C93.5,141,94.2,141.7,95.1,141.8z"/>
	<path class="st0" d="M76.5,141c0.3-0.3,0.5-0.8,0.5-1.2c-0.1-12.1-7.6-22.9-18.9-27.1l-1.1-0.4c8.9-4.9,12.1-16,7.2-24.9
		c-2.2-3.9-5.7-6.9-9.9-8.4c-9.5-3.4-20,1.5-23.4,11.1c-1.9,5.2-1.3,11,1.6,15.7c1.7,2.7,4.1,5,6.9,6.5c-5.2,1.6-9.9,4.7-13.4,8.9
		c-4.3,5.2-6.7,11.7-6.7,18.5c0,1,0.8,1.8,1.9,1.9h54c0.4,0,0.8-0.1,1.1-0.4L76.5,141L76.5,141z M36.8,105.5
		c-5.1-6.3-4.1-15.4,2.2-20.5s15.4-4.1,20.5,2.2c5.1,6.3,4.1,15.4-2.2,20.5c-1.2,1-2.6,1.8-4.1,2.3
		C47.3,112.2,40.8,110.4,36.8,105.5z M56.9,137.9H23c1-13.9,13.1-24.3,26.9-23.2c6.9,0.5,13.2,3.8,17.6,9.1c3.3,4,5.3,9,5.7,14.2
		L56.9,137.9z"/>
</g>
</svg>
