<?xml version="1.0" encoding="utf-8"?>
<!-- Generator: Adobe Illustrator 25.0.0, SVG Export Plug-In . SVG Version: 6.00 Build 0)  -->
<svg version="1.1" id="Layer_1" xmlns="http://www.w3.org/2000/svg" xmlns:xlink="http://www.w3.org/1999/xlink" x="0px" y="0px"
	 viewBox="0 0 200 200" style="enable-background:new 0 0 200 200;" xml:space="preserve">
<style type="text/css">
	.st0{fill:#ffffff;}
</style>
<g>
	<path class="st0" d="M195.5,50.8c-0.8-1.7-1.7-3.4-2.5-5.2c0.3-0.6,0.6-1.2,0.9-1.7c0.5-0.9,0.2-2.1-0.7-2.6l-0.8-0.4
		c0.4-0.9,0.9-1.7,1.3-2.6c0.5-0.9,0.2-2.1-0.7-2.6l-5-2.5c-0.9-0.5-2.1-0.2-2.6,0.7c-0.5,0.9-0.9,1.8-1.4,2.8l-0.6-0.3
		c-0.9-0.5-2.1-0.2-2.6,0.7l-12.7,25.2l-1.8,3.6c-0.3,0.6-0.3,1.3,0,1.9l-6.4,12.6l-11.2,22.3c-0.8,1.7-1.7,3.2-2.5,4.8
		c-0.1,0.1-0.1,0.2-0.2,0.3l0,0l0,0c-0.1,0.1-0.1,0.3-0.2,0.4c-1.1,5.4-2.2,10.9-3.4,16.3c-0.3,1,0.3,2.1,1.4,2.4
		c0.7,0.2,1.3,0,1.8-0.5l9.5-10.1c0.9-0.8,1.6-1.7,2.3-2.6c0.6-1,1-2,1.5-3c4.9-9.8,9.9-19.6,14.8-29.4l3.9-7.7
		c0.7,0.1,1.4-0.3,1.7-0.9l11.5-22.8c0.3,0.6,0.6,1.2,0.9,1.8l-8.6,17l-1.3,2.5c-1.1,2.2,2.2,4.2,3.4,1.9c1.8-3.6,3.6-7.2,5.4-10.8
		l3.6-7.1C194.8,54,196.2,52.2,195.5,50.8z M187.9,37.3l1.6,0.8L189,39l-1.6-0.8L187.9,37.3z M163.6,93.1l-7.3,14.4l-1.9,3.8
		c-0.1,0.2-0.2,0.3-0.3,0.5l-0.7,0.7l-5.9,6.3l1.5-7.2l1.5,0.8c1,0.4,2.1-0.1,2.5-1.1c0.3-0.9,0-1.8-0.8-2.3l-2-1l6.2-12.2
		l11.3-22.4l1.8-3.6l4.7,2.4L163.6,93.1z M177.8,67.1l-1,2h-0.1l-1.9-1c-0.1-0.1-0.3-0.3-0.5-0.4l-3.9-2l11.8-23.4l1-2l6.5,3.3
		L177.8,67.1z"/>
	<path class="st0" d="M168,58.3c0-4.1,0.1-8.3,0-12.4c0,0,0-0.1,0-0.2c0.1-0.5-0.1-1-0.5-1.4c0,0,0-0.1,0-0.1l0,0l-0.7-0.7l0,0
		l-3.4-3.4l-22-22l-3.1-3.1l-0.6-0.5l0,0c-0.3-0.3-0.8-0.5-1.2-0.5c-0.1,0-0.2,0-0.2,0c-2.4-0.1-4.7,0-7.1,0H97.6
		c-7.6,0-15.3-0.2-22.9,0h-0.4c-1.1,0-1.9,0.9-1.9,1.9v110c0,5-0.2,10.2,0,15.2v0.1c0,1.1,0.9,1.9,1.9,1.9h80.5
		c3.7,0,7.5,0.2,11.2,0c0.1,0,0.1,0,0.2,0c1.1,0,1.9-0.9,1.9-1.9v-37.1c-0.1-1.1-1-1.8-2.1-1.7c-0.9,0.1-1.7,0.8-1.7,1.7v35.3H78
		h-1.8V21c0-1,0-2.1,0-3.2h58.2v27.8c0,1.1,0.9,1.9,1.9,1.9h27.9v10.8c0,1.1,0.9,2,2,2S168,59.4,168,58.3z M138.3,43.7V20.5l6.7,6.7
		l16,16l0.4,0.4L138.3,43.7L138.3,43.7z"/>
	<path class="st0" d="M88.5,30.3h27.8c1.1-0.1,1.8-1,1.7-2.1c-0.1-0.9-0.8-1.7-1.7-1.7H88.5c-1.1,0.1-1.8,1-1.7,2.1
		C86.9,29.4,87.6,30.2,88.5,30.3z"/>
	<path class="st0" d="M88.5,40.4h27.8c1.1-0.1,1.8-1,1.7-2.1c-0.1-0.9-0.8-1.7-1.7-1.7H88.5c-1.1,0.1-1.8,1-1.7,2.1
		C86.9,39.6,87.6,40.4,88.5,40.4z"/>
	<path class="st0" d="M106.3,62.3h27.8c1.1-0.1,1.8-1,1.7-2.1c-0.1-0.9-0.8-1.7-1.7-1.7h-27.8c-1.1,0.1-1.8,1-1.7,2.1
		C104.7,61.5,105.4,62.2,106.3,62.3z"/>
	<path class="st0" d="M88.5,101h27.8c1.1-0.1,1.8-1,1.7-2.1c-0.1-0.9-0.8-1.7-1.7-1.7H88.5c-1.1,0.1-1.8,1-1.7,2.1
		C86.9,100.1,87.6,100.9,88.5,101z"/>
	<path class="st0" d="M88.5,75.3h63.3c1.1-0.1,1.8-1,1.7-2.1c-0.1-0.9-0.8-1.7-1.7-1.7H88.5c-1.1,0.1-1.8,1-1.7,2.1
		C86.9,74.5,87.6,75.2,88.5,75.3z"/>
	<path class="st0" d="M88.5,88.1h63.3c1.1-0.1,1.8-1,1.7-2.1c-0.1-0.9-0.8-1.7-1.7-1.7H88.5c-1.1,0.1-1.8,1-1.7,2.1
		C86.9,87.3,87.6,88.1,88.5,88.1z"/>
	<path class="st0" d="M143.3,133.6c-2.6-2.3-6.2-2.5-9.6-2.1c-1.9,0.4-3.8,0.5-5.7,0.4c-0.7-0.1-2.8-0.8-2.3-1.8
		c0.5-0.9,0.2-1.9-0.7-2.4c0,0,0,0,0,0c-0.9-0.5-2.1-0.2-2.6,0.6c-1.7,2.6-6.4,2.1-6.7-1.1c-0.1-1.1-1-1.9-2.1-1.8
		c-0.8,0.1-1.4,0.6-1.7,1.3c-0.2,0.7-0.6,1.3-1.1,1.7c0-0.5,0-1,0-1.5c0-1.5,0.1-3.5-1.5-4.3c-1.2-0.6-2.5,0-3.5-0.8
		c-0.3-0.3-0.6-0.6-0.8-0.9c1.4-2.1,2.6-4.4,3.6-6.7c0.9-2.2,1.9-4.7,1-6.9c-0.9-2.3-3.3-3.5-5.7-2.9c-4.7,1.2-5.7,6.5-5.2,10.4
		c0.3,2.1,0.9,4.1,1.8,6.1c-3.1,4.2-7,7.7-11.5,10.4c-0.9,0.5-1.1,1.7-0.6,2.5c0.5,0.9,1.7,1.1,2.5,0.6c4.5-2.7,8.5-6.2,11.8-10.3
		c0.5,0.5,1,0.9,1.5,1.2c0.5,0.3,1.1,0.5,1.7,0.6c0.3,0,0.7,0,1,0l0,0c0,0.6,0,1.3,0,1.9c0,0.9,0,1.8-0.1,2.6
		c-0.4,0.2-0.8,0.4-1.1,0.6c-1.3,0.8-2.9,2-2.9,3.5c0,1.5,1.2,2.6,2.6,2.7c0.1,0,0.2,0,0.3,0c2.6,0,4-2.2,4.6-4.3
		c0.5-0.2,1-0.4,1.4-0.7c0.6-0.3,1.2-0.8,1.8-1.2c1,1.3,2.5,2.2,4.2,2.6c1.7,0.3,3.5,0.1,5-0.7c0.2,0.3,0.4,0.6,0.7,0.9
		c1.5,1.3,3.4,1.9,5.4,1.9c3.6,0.1,8.8-2.1,11.8,0.6C142.4,137.7,145.1,135.2,143.3,133.6z M102.7,110c0.3-1,1-1.8,1.9-2.2
		c1.4-0.5,1.5,1.3,1.3,2.2c-0.6,2.4-1.6,4.7-2.9,6.8C102.2,114.7,102.1,112.3,102.7,110L102.7,110z M107.5,125.8L107.5,125.8
		C107.7,125.8,107.8,125.8,107.5,125.8L107.5,125.8z"/>
	<path class="st0" d="M53,19.8v15.5c0.1,1.1,1,1.8,2.1,1.7c0.9-0.1,1.7-0.8,1.7-1.7V19.8c-0.1-1.1-1-1.8-2.1-1.7
		C53.8,18.1,53.1,18.8,53,19.8z"/>
	<path class="st0" d="M31.4,29.3l9.6,9.6l1.4,1.4c0.7,0.8,1.9,0.9,2.7,0.2c0.8-0.7,0.9-1.9,0.2-2.7c-0.1-0.1-0.2-0.2-0.2-0.2
		L35.5,28l-1.4-1.4c-0.7-0.8-1.9-0.9-2.7-0.2c-0.8,0.7-0.9,1.9-0.2,2.7C31.3,29.2,31.4,29.2,31.4,29.3z"/>
	<path class="st0" d="M26.3,53.7h15.5c1.1,0,1.9-0.9,1.9-1.9c0-1.1-0.9-1.9-1.9-1.9H26.3c-1.1,0-1.9,0.9-1.9,1.9
		C24.4,52.8,25.3,53.7,26.3,53.7L26.3,53.7z"/>
	<path class="st0" d="M168.2,169.4h-8.6v-17c-0.1-1.1-1-1.8-2.1-1.7c-0.9,0.1-1.7,0.8-1.7,1.7v17h-134c-0.8,0-1.5,0-2.3,0V74.1
		c0-0.7,0-1.5,0-2.2H60c1.1-0.1,1.8-1,1.7-2.1c-0.1-0.9-0.8-1.7-1.7-1.7H17.4c-1.1,0-1.9,0.9-1.9,1.9v88.9c0,3.5-0.1,7,0,10.5
		c-3,0-6,0-9,0H6.2c-1.1,0-1.9,0.9-1.9,2c0,0.3,0.1,0.7,0.3,0.9l4.3,7.1c0.9,1.4,1.7,2.9,2.6,4.3c0.6,1,1.1,2.3,2.5,2.3
		c1.7,0.1,3.4,0,5,0h120c7.1,0,14.2,0.2,21.3,0h0.3c0.1,0,0.2,0,0.3,0c0.1,0,0.1,0,0.2,0c0.2,0,0.3-0.1,0.5-0.2l0.2-0.2
		c0.1-0.1,0.2-0.2,0.3-0.3c0.1-0.1,0.1-0.1,0.2-0.2l7.7-12.8c0.5-0.9,0.2-2.1-0.7-2.7C168.9,169.5,168.5,169.4,168.2,169.4z
		 M145.8,182.2H19.9c-1.7,0-3.3-0.1-4.9,0l-5.3-9h130.8c5.6,0,11.3,0.2,16.9,0c0.1,0,0.2,0,0.2,0h4h3.2l-5.3,8.9L145.8,182.2z"/>
</g>
</svg>
