<?xml version="1.0" encoding="utf-8"?>
<!-- Generator: Adobe Illustrator 25.0.0, SVG Export Plug-In . SVG Version: 6.00 Build 0)  -->
<svg version="1.1" id="Layer_1" xmlns="http://www.w3.org/2000/svg" xmlns:xlink="http://www.w3.org/1999/xlink" x="0px" y="0px"
	 viewBox="0 0 200 200" style="enable-background:new 0 0 200 200;" xml:space="preserve">
<style type="text/css">
	.st0{fill:#FFFFFF;}
</style>
<g>
	<path class="st0" d="M32,43.7h60.6c1.2-0.1,2-1.1,1.9-2.3c-0.1-1-0.9-1.8-1.9-1.9H32c-1.2,0.1-2,1.1-1.9,2.3
		C30.2,42.9,31,43.7,32,43.7z"/>
	<path class="st0" d="M57.8,182.4h12c1.2,0,2.1-0.9,2.1-2.1c0-1.2-0.9-2.1-2.1-2.1h-12c-1.2,0-2.1,0.9-2.1,2.1
		C55.8,181.5,56.7,182.4,57.8,182.4z"/>
	<path class="st0" d="M132.6,45.7l-12.5,12.5V41.8c0-7.3,0-14.8,0-22.1c-0.1-7.4-5.8-13.6-13.2-14.1c-1.4-0.1-2.9,0-4.3,0H24.8
		c-1.7-0.1-3.5,0-5.2,0.2c-6.9,1.1-12,7.1-12.1,14.1c0,2.9,0,5.7,0,8.6v150.4c0,1.5,0.1,3.1,0.3,4.6c1.5,6.5,7.2,11.1,13.9,11.1
		c5.1,0,10.2,0,15.2,0h67c2.8,0.2,5.6-0.3,8.2-1.5c3.4-1.6,5.9-4.5,7.2-8c0.6-1.9,0.9-3.8,0.8-5.7v-23c-0.1-1.2-1.1-2-2.3-1.9
		c-1,0.1-1.8,0.9-1.9,1.9v10h-93c-3.7,0-7.5-0.1-11.3,0V19.8c0-5.4,4.3-9.9,9.8-10c4.4,0,8.8,0,13.2,0h57.9c4.5,0,8.9,0,13.4,0
		c5.5,0.1,9.9,4.7,9.8,10.2c0,2.7,0,5.5,0,8.2v30l-10.5-10.5l-2-2c-0.9-0.7-2.2-0.6-3,0.3c-0.7,0.8-0.7,1.9,0,2.7
		c4.7,4.7,9.4,9.4,14,14l2,2l0,0h0.1c0.8,0.6,1.9,0.6,2.7,0h0.1l0,0l14-14c0.7-0.7,1.3-1.3,2-2c0.6-1,0.4-2.3-0.6-2.9
		C134.2,45.3,133.3,45.3,132.6,45.7z M20.4,170.3h84.3c3.7,0,7.5,0.1,11.2,0v8.8c0.1,1.7-0.2,3.5-0.8,5.1c-1.3,2.9-3.9,5.1-7.1,5.8
		c-1.7,0.2-3.3,0.3-5,0.2H21.8c-5.5,0-10-4.5-10-10c0-2.7,0-5.3,0-8v-1.9L20.4,170.3z"/>
	<path class="st0" d="M190,51.9c-2.6-3.8-6.9-6.1-11.5-6.2c-1.8,0-3.6,0-5.5,0h-24.1c-1.2,0-2.1,0.9-2.1,2.1c0,1.2,0.9,2.1,2.1,2.1
		c9.8,0,19.7-0.1,29.5,0c3.7,0,7.2,2.1,8.8,5.5c0.7,1.7,1.1,3.5,1,5.3v67.2c0,3.8,0.3,7.5-2.4,10.7c-1.9,2.2-4.6,3.4-7.5,3.4H78.5
		c-1.2,0-2.5-0.1-3.6-0.4c-4.1-1.4-6.9-5.2-6.9-9.6c-0.1-9,0-18,0-27v-32l10.5,10.5l2,2c0.8,0.8,2.2,0.7,3-0.1c0.7-0.8,0.7-2,0-2.8
		l-14.1-14l-2-2l0,0c0,0,0,0-0.1,0c-0.8-0.6-1.9-0.6-2.7,0h-0.1l0,0c-4.7,4.7-9.4,9.4-14,14l-2,2c-0.7,1-0.4,2.3,0.5,2.9
		c0.7,0.5,1.6,0.5,2.3,0c4.2-4.2,8.3-8.3,12.5-12.5v57.6c0,1.5,0.1,3.1,0.3,4.6c1.1,5.1,4.9,9.1,9.8,10.6c2.7,0.5,5.4,0.7,8.1,0.5
		h75.1c7.1,0,14.2,0,21.4,0c7.8-0.2,14-6.7,13.8-14.6V64.2C192.5,59.9,192.5,55.7,190,51.9z"/>
	<path class="st0" d="M116.6,90.3C116.6,90.6,116.6,90.7,116.6,90.3z"/>
	<path class="st0" d="M140.4,108.8c-0.8-4.6-4.7-7.6-8.8-9.3c-1.1-0.4-2.2-0.8-3.3-1.1V82.7h0.1c0.3,0,0.5,0.1,0.8,0.2l0.9,0.3
		l0.6,0.2c0.4,0.2,0.8,0.4,1.2,0.7l0.5,0.3l0.4,0.4c0.3,0.2,0.5,0.5,0.7,0.8c0.1,0.1,0.2,0.2,0.2,0.3c0.1,0.2,0.2,0.4,0.3,0.6
		c0,0.1,0.2,0.3,0.2,0.4c0,0.1,0,0.1,0,0.2c0.1,0.3,0.2,0.7,0.3,1c0.1,0.4,0.1,0.6,0.2,0.8l0,0l0,0c0,0.2,0,0.2,0,0.1v0.2
		c0,0.4,0,0.8,0,1.2c0,0.2,0,0.3,0,0.5c-0.1,1.1,1,2,2,2c1.1,0,2-0.9,2-2c0.2-2.2-0.2-4.4-1.3-6.3c-2-3.5-5.5-5.7-9.5-6v-4.6
		c-0.1-1.1-1.1-1.9-2.2-1.8c-1,0.1-1.7,0.8-1.8,1.8v4.4c-4.2,0-8,2.2-10.2,5.8c-0.7,1.3-1.2,2.8-1.3,4.3c0,0.4-0.1,0.7-0.1,1.1
		s0,0,0-0.2c-0.3,2.3,0.2,4.6,1.5,6.5c1.2,1.8,2.9,3.2,4.8,4c1.3,0.6,2.7,1.1,4.1,1.4c0.4,0,0.8,0.1,1.2,0.2v17.9
		c-1-0.2-1.9-0.4-2.9-0.7l-0.5-0.2c-0.3-0.1-0.5-0.2-0.8-0.4l-0.7-0.4l-0.4-0.2l0,0l0,0c-0.4-0.3-0.7-0.7-1.1-1l-0.1-0.2l0,0
		c-0.1-0.2-0.3-0.5-0.5-0.7l-0.3-0.7v-0.1v-0.2c-0.2-0.5-0.3-1.1-0.5-1.6c0-0.3,0-0.5-0.1-0.8l0,0V112c0-0.6,0-1.2,0-1.8
		c-0.1-1.1-1.1-1.9-2.2-1.8c-1,0.1-1.7,0.8-1.8,1.8c0,4.9,1.8,9.7,6.5,12c1.8,0.9,3.8,1.5,5.8,1.8v4.3c0.1,1.1,1.1,1.9,2.2,1.8
		c1-0.1,1.7-0.8,1.8-1.8v-4c2.6,0,5.1-0.7,7.3-2C140,119,141.7,113.7,140.4,108.8z M123.3,97.4c-0.6-0.2-1.2-0.4-1.8-0.6l0,0l0,0
		l-0.3-0.2c-0.3-0.1-0.5-0.3-0.8-0.4c-0.2-0.1-0.5-0.3-0.7-0.4l-0.3-0.2c-0.3-0.3-0.7-0.6-1-0.9l-0.3-0.4c0-0.1-0.1-0.1-0.1-0.2
		c-0.2-0.3-0.4-0.6-0.6-1V93c0-0.1-0.1-0.2-0.1-0.4c-0.1-0.3-0.2-0.6-0.2-0.9v-0.3c0-0.2,0-0.4,0-0.6s0-0.5,0-0.8v-0.2
		c0-0.3,0-0.6,0-0.9c0-0.3,0-0.1,0-0.2l0,0c0-0.3,0.1-0.6,0.2-0.9s0.2-0.6,0.3-0.9v-0.1c0-0.2,0.2-0.3,0.3-0.5
		c0.2-0.3,0.4-0.6,0.6-0.9l0,0l0,0c0,0,0.3-0.4,0.5-0.5l0.4-0.4l0.1-0.1c0,0,0.1,0,0.1-0.1c0.4-0.3,0.8-0.5,1.3-0.7h0.2h0.2l0.7-0.2
		c0.6-0.2,1.2-0.3,1.8-0.4h0.9v15.2L123.3,97.4z M136.6,111.8c0,0.2,0,0.5,0,0.7v0.4l0,0c-0.1,0.5-0.2,1.1-0.4,1.6
		c0,0.2-0.2,0.5-0.3,0.7v0.2c0,0.1,0,0.1,0,0.2c-0.3,0.5-0.5,1-0.9,1.4l0,0l0,0l-0.2,0.3l-0.5,0.5l-0.3,0.3l0,0
		c-0.2,0.2-0.5,0.3-0.7,0.5c-1,0.6-2.1,0.9-3.2,1.1h-0.2h-0.6h-0.7v-17.4l0.5,0.1l1.1,0.4l0.5,0.2l0.3,0.1c0.9,0.4,1.7,0.9,2.5,1.4
		l0.3,0.2l0,0l0.5,0.4c0.4,0.3,0.7,0.7,1.1,1.1l0,0c0.1,0.1,0.1,0.2,0.2,0.3c0.1,0.2,0.3,0.4,0.4,0.6c0.1,0.2,0.2,0.4,0.3,0.7l0,0
		l0,0l0.2,0.5c0,0.3,0.1,0.5,0.2,0.8c0.1,0.3,0,0.5,0.1,0.6C136.8,110.4,136.8,111.1,136.6,111.8L136.6,111.8z"/>
	<path class="st0" d="M135.1,89.1L135.1,89.1c0,0.1,0,0.1,0,0.2V89.1z"/>
</g>
</svg>
