<?xml version="1.0" encoding="utf-8"?>
<!-- Generator: Adobe Illustrator 25.0.0, SVG Export Plug-In . SVG Version: 6.00 Build 0)  -->
<svg version="1.1" id="Layer_1" xmlns="http://www.w3.org/2000/svg" xmlns:xlink="http://www.w3.org/1999/xlink" x="0px" y="0px"
	 viewBox="0 0 200 200" style="enable-background:new 0 0 200 200;" xml:space="preserve">
<style type="text/css">
	.st0{fill:#FFFFFF;}
</style>
<g>
	<path class="st0" d="M158.4,168.1c-0.6-1.8-1.1-3.7-1.4-5.5c0-1.7,0.1-3.4,0.5-5.1c0.3-1.9,0.4-3.7,0.5-5.6
		c-0.3-5-1.2-9.9-2.8-14.6c-1.8-7.2-4.1-14.3-6.7-21.3c-1.4-4-3.3-7.8-5.4-11.4c-1-1.8-2.3-3.4-3.9-4.7c-3.7-3.3-8.8-4.3-13.5-2.8
		c-3.5-5.3-10.5-5.9-16.3-3.6c-0.3-0.7-0.7-1.3-1.2-1.9c-1.4-1.6-3.1-2.7-5.1-3.3c-3.8-1.1-7.9-0.7-11.5,1.1
		c-2.1-5.3-4.3-10.7-6.4-16.1c-0.6-1.8-1.6-3.4-2.8-4.8c-2.1-2.4-5.1-3.7-8.3-3.8c-3,0-5.9,1.1-8.2,3.1c-2.4,2.4-3.3,5.8-2.6,9.1
		c0.8,5.6,3.6,11.1,5.6,16.3l9.7,24.4l4.1,10.4c0.3,0.8,0.6,1.7,0.9,2.5c-2.2-0.6-4.5-1.3-6.6-2.1c-3.6-1.3-7.2-2.7-10.7-4.1
		c-3.6-1.4-7.7-2.6-11.5-0.7c-4.1,2.4-6.2,7.1-5.2,11.7c0.4,2.2,1.4,4.2,2.8,6c1.5,1.6,3.2,2.9,5.1,4c3.8,2.4,7.3,4.9,10.9,7.5
		c6.7,5.1,13,10.8,18.8,17c3.3,3.6,6.5,7.2,9.6,11c1.7,1.9,3.2,3.8,4.7,5.9c1.2,1.9,2.2,3.8,3.1,5.8c0.5,1.8,1.5,3.4,2.9,4.7
		c1.6,1.2,3.7,1.5,5.6,0.8c0.8-0.3,1.7-0.7,2.5-1l29-11.6l10.8-4.3c1.8-0.5,3.4-1.8,4.3-3.4C161.1,174.2,159.3,171.1,158.4,168.1z
		 M155.4,176c0,0.1-0.8,0.5-0.4,0.3l0,0c-0.1,0-0.2,0.1-0.3,0.1c-2.9,1.2-5.8,2.3-8.7,3.5l-28.8,11.5l-4.1,1.7
		c-1,0.4-2.2,1.1-3.2,0.3c-0.5-0.5-0.8-1.1-1-1.8c-0.4-0.9-0.8-1.8-1.1-2.6c-0.8-1.9-1.9-3.7-3.1-5.5c-2.8-4-6.2-7.6-9.4-11.3
		c-5.4-6.3-11.3-12.2-17.6-17.7c-6.4-5.3-13.1-10.2-20.1-14.6c-3.1-1.9-4.6-5.7-3.8-9.2c0.5-1.7,1.7-3.2,3.3-3.9
		c1.6-0.5,3.4-0.4,5,0.2c3.3,1,6.4,2.5,9.6,3.8c3.5,1.4,7.1,2.6,10.8,3.5c1.5,0.4,3,0.6,4.5,0.6c1.2,0,2.1-1,2.1-2.2
		c0-0.2,0-0.4-0.1-0.5c-4.7-11.9-9.4-23.8-14.2-35.6c-1.9-5-4-9.9-5.9-14.9c-1.4-3.5-3.3-9.2,0.8-11.6c2-1.3,4.5-1.5,6.7-0.7
		c1.9,0.8,3.4,2.4,4.3,4.3c2.7,6.3,5.1,12.7,7.5,19.1l0,0c3.3,8.6,6.6,17.3,9.9,25.9l1.4,3.8c0.3,1.1,1.5,1.8,2.6,1.5
		c1.1-0.3,1.8-1.5,1.5-2.6c-3.3-8.6-6.5-17.3-9.8-25.9L93,93.4c2.6-1.4,5.6-1.7,8.4-1c1.3,0.3,2.4,1.1,3.3,2.1
		c0.6,0.7,1.1,1.6,1.4,2.5l0,0l6.7,19.4l0.9,2.7c0.3,1.1,1.5,1.8,2.6,1.5c1.1-0.3,1.8-1.5,1.5-2.6l-6.7-19.6l-0.4-1.1
		c4.2-1.7,9.9-1.7,11.7,2.9l0,0c1.5,4.3,3.1,8.7,4.7,13l0.7,1.9c0.3,1.1,1.5,1.8,2.6,1.5c1.1-0.3,1.8-1.5,1.5-2.6l-4.7-13l0,0
		c2.7-0.7,5.5-0.3,7.8,1.3l0.7,0.5l0.2,0.1c0.5,0.5,1.1,1,1.5,1.5l0.4,0.5l0.1,0.2c0,0,0,0.1,0,0.1c0.4,0.5,0.7,1,1,1.5
		c1.9,3.1,3.5,6.4,4.8,9.8c2.5,6.3,4.6,12.7,6.3,19.2c1.7,4.9,2.8,9.9,3.3,15c0.1,2,0,3.9-0.3,5.9c-0.5,2-0.6,4.1-0.6,6.2
		c0,0.1,0,0.2,0,0.3c0,0.1,0,0.2,0,0.3c0.7,3.4,1.6,6.7,2.9,9.9C156,174.3,156.3,175.2,155.4,176z"/>
	<path class="st0" d="M182.1,6.3c-3.5-1.5-7.5-1.1-11.1-1.1H23.4c-5.5,0-10.5,3.4-12.6,8.5c-0.7,2.3-1.1,4.6-0.9,7v64.1
		c0,5.2,0,10.4,0,15.6c-0.1,5.5,3.2,10.5,8.3,12.6c3,1,6.1,1.3,9.2,1h33.9c1.2-0.1,2.1-1.2,1.9-2.3c-0.1-1-0.9-1.9-1.9-1.9H38.6
		V20.2c0-3.5,0.1-7.1,0-10.7h121.2V99c0,3.6-0.1,7.1,0,10.7h-6.4c-1.2,0.1-2.1,1.2-1.9,2.3c0.1,1,0.9,1.9,1.9,1.9h22.3
		c2,0.1,4-0.2,5.8-0.9c3.3-1.3,5.9-3.8,7.4-7.1c0.9-2.4,1.3-5,1.1-7.5V18.8C190.1,13.4,187,8.5,182.1,6.3z M34.3,17.7V99
		c0,3.6-0.1,7.1,0,10.7h-6.7c-2.6,0.3-5.3,0.1-7.8-0.7c-3.6-1.5-5.8-5.1-5.6-9V20.7c-0.2-2,0.1-3.9,0.8-5.8c1.5-3.4,5-5.5,8.6-5.4
		h10.7V17.7z M185.4,103c-0.8,3-3.1,5.4-6.1,6.3c-1.4,0.4-2.8,0.5-4.2,0.4h-11V20.2c0-3.5,0.1-7.1,0-10.7h11c1.2-0.1,2.3,0,3.5,0.2
		c4.2,1,7.2,4.9,7.1,9.2c0,5.2,0,10.5,0,15.7v63.4C185.8,99.7,185.7,101.4,185.4,103L185.4,103z"/>
	<path class="st0" d="M139.9,24.7h-24.8c-1.2,0-2.1,1-2.1,2.2v24.8c0,1.2,1,2.1,2.1,2.2h24.8c0.5,0,1-0.2,1.4-0.5l0.2-0.1l0.1-0.1
		c0.3-0.4,0.5-0.9,0.5-1.4V26.9C142.1,25.7,141.1,24.7,139.9,24.7z M118.2,49.5h-0.9V29h20.5v20.5H118.2z"/>
	<path class="st0" d="M80.8,41.3v8.2H60.4V29h13.1c1.2,0,2.2-1,2.2-2.2s-1-2.2-2.2-2.2H58.2c-1.2,0-2.1,1-2.2,2.2v24.8
		c0,1.2,1,2.1,2.2,2.2H83c1.2,0,2.1-1,2.2-2.2V41.3c0-1.2-1-2.2-2.2-2.2C81.8,39.1,80.8,40.1,80.8,41.3z"/>
	<path class="st0" d="M86.6,25.4c-0.8-0.8-2.2-0.8-3,0L72,38.8l-0.3,0.3L66,33.2c-1.9-1.9-5,1.1-3.1,3l7.5,7.5c0.8,0.8,2.2,0.8,3,0
		L85,30.4l1.7-1.9C87.5,27.6,87.5,26.2,86.6,25.4C86.6,25.4,86.6,25.4,86.6,25.4z"/>
	<path class="st0" d="M26.8,52.9c-2.7-0.9-5.6-0.1-7.5,2c-2.6,2.9-2.3,7.3,0.6,9.9c2.9,2.6,7.3,2.3,9.9-0.6c2.6-2.9,2.3-7.3-0.6-9.9
		C28.5,53.7,27.7,53.2,26.8,52.9z M27.1,60.7c-0.1,0.2-0.2,0.4-0.3,0.6c-0.1,0.1-0.1,0.1-0.2,0.2l-0.2,0.2l0,0
		c-0.2,0-0.3,0.2-0.4,0.3L25.7,62l0,0l-0.6,0.2h-0.3c-0.2,0-0.4,0-0.6,0h-0.4h-0.2l0,0l0,0h-0.1c-0.1,0,0,0,0,0L23.2,62L23,61.9l0,0
		c0,0-0.3-0.3-0.4-0.5s0.1,0.2,0,0v-0.1l0,0l0,0l-0.2-0.2l-0.1-0.2l0,0c0-0.2-0.1-0.4-0.2-0.5v-0.3l0,0c0-0.2,0-0.4,0-0.6l0,0l0,0
		c0,0,0-0.2,0-0.2c0.1-0.2,0.1-0.4,0.2-0.6l0.2-0.3c0.1-0.1,0.1-0.1,0.1-0.2l0,0l0,0l0,0c0-0.2,0.1-0.2,0.1,0
		c0.1-0.1,0.2-0.2,0.2-0.3c0,0,0.4-0.3,0,0l0,0c0.2-0.1,0.4-0.2,0.6-0.3h0.2h0.3h0.2h0.6l0.7,0.2l0.4,0.2l0.2,0.1l0,0l0,0l0.5,0.5
		l0,0l0.2,0.3l0.2,0.3c0,0.2,0.1,0.4,0.2,0.6l0,0c0,0.1,0,0.2,0,0.1c0,0.1,0,0.2,0,0.3c0,0,0,0.2,0,0.3c0,0.1,0,0.4-0.1,0.6
		C27,60.8,27,60.8,27.1,60.7L27.1,60.7z"/>
	<path class="st0" d="M22.5,57.8l-0.2,0.1l0,0C22.4,57.9,22.4,57.9,22.5,57.8z"/>
	<path class="st0" d="M27.2,59.3v-0.2C27.2,59.2,27.2,59.3,27.2,59.3z"/>
	<path class="st0" d="M23.5,62.1L23.5,62.1c0,0-0.1,0-0.2,0H23.5z"/>
	<path class="st0" d="M21.8,59.2C21.9,58.9,21.8,59.1,21.8,59.2z"/>
	<path class="st0" d="M22.3,61.2L22.3,61.2L22.3,61.2L22.3,61.2z"/>
	<path class="st0" d="M24.8,62.3h0.1C24.9,62.2,24.7,62.3,24.8,62.3z"/>
</g>
</svg>
