<?xml version="1.0" encoding="utf-8"?>
<!-- Generator: Adobe Illustrator 25.0.0, SVG Export Plug-In . SVG Version: 6.00 Build 0)  -->
<svg version="1.1" id="Layer_1" xmlns="http://www.w3.org/2000/svg" xmlns:xlink="http://www.w3.org/1999/xlink" x="0px" y="0px"
	 viewBox="0 0 200 200" style="enable-background:new 0 0 200 200;" xml:space="preserve">
<style type="text/css">
	.st0{fill:#ffffff;}
</style>
<g>
	<path class="st0" d="M49.5,35.8c-2.8-3.4-6.4-6.1-10.4-7.8c-0.9-0.5-2-0.2-2.4,0.7c-0.1,0.3-0.2,0.5-0.2,0.8v19l-8.1,7.1l-8.1-7.1
		v-19c0-1-0.8-1.8-1.8-1.8c-0.3,0-0.6,0.1-0.8,0.2c-7.3,3.1-12.9,9.3-15.3,16.9c-2.6,8.1-1.1,16.9,4.1,23.6c1.4,1.9,3,3.6,4.8,5.1
		c0.9,0.8,1.8,1.5,2.8,2.1l1.2,0.8v58.9c0,1,0.8,1.8,1.8,1.8c1,0,1.8-0.8,1.8-1.8v-60c0-0.8-0.5-1.4-1.2-1.7
		C11.1,70,6.6,64.1,4.9,57.1C3.6,50.1,5.6,43,10.2,37.7c1.9-2.2,4.1-4,6.6-5.4v11.6c0,1.8-0.1,3.6,0,5.3c0,1,0.8,1.5,1.4,2.1
		l3.2,2.8l5.6,5c0.7,0.7,1.8,0.7,2.5,0l5-4.3c1.5-1.4,3.4-2.7,4.9-4.3c0.5-0.7,0.7-1.5,0.5-2.3V32.3c5.1,2.9,9,7.5,10.9,13
		c2.4,6.9,1.3,14.5-2.9,20.5c-2.3,3.2-5.2,5.9-8.7,7.9c-0.7,0.2-1.2,0.9-1.2,1.7V170c0,5.4-4.4,9.8-9.8,9.8c-2.2,0-4.3-0.7-6-2.1
		c-2.4-2-3.8-4.9-3.7-8c0-5.1,0-10.1,0-15.2v-1.4c0-1-0.8-1.8-1.8-1.8c-1,0-1.8,0.8-1.8,1.8v14.4c-0.2,2.4,0.1,4.8,0.8,7.2
		c2.5,6.9,10.2,10.4,17.1,7.9c5.2-1.9,8.7-6.9,8.7-12.5c0-1.9,0-3.9,0-5.8V82.5c0-2.1,0.1-4.1,0-6.1c0.2-0.1,0.4-0.3,0.6-0.4
		c0.9-0.6,1.8-1.3,2.7-2c1.6-1.3,3.1-2.7,4.4-4.3c2.7-3.1,4.6-6.9,5.6-10.8C56.8,50.7,54.8,42.2,49.5,35.8z"/>
	<path class="st0" d="M109,121.3c-1.2-3.3-4.4-5.4-7.8-5.4c-1.4,0-2.8,0-4.2,0h-1.4V56.9l4.8-2.8c0.7-0.4,1-1.2,0.8-2l-4-20.3
		l-0.6-2.9c-0.2-0.8-0.9-1.3-1.7-1.3H81.3c-0.8,0-1.5,0.5-1.7,1.3l-4,20.3L75,52.1c-0.2,0.8,0.1,1.6,0.8,2l4.9,2.8v58.9
		c-4.2,0-9-0.6-11.9,2.9c-2.9,3.6-2.4,8.8,1.1,11.7c0.2,0.2,0.5,0.4,0.7,0.5c1.3,0.8,2.8,1.3,4.3,1.3l0,0v19c0,6.3-0.2,12.7,0,19.1
		c0.1,7.3,6.1,13.2,13.5,13.1c6.7-0.1,12.3-5.2,13-11.9c0.2-2.2,0.2-4.3,0.1-6.5v-12.5c0-6.8,0.1-13.5,0-20.3c1.1,0,2.1-0.3,3.1-0.7
		C108.5,129.9,110.4,125.4,109,121.3z M78.6,51.7l3.7-18.9l0.3-1.6h11c1.2,6.3,2.5,12.7,3.7,19c0.1,0.5,0.2,1,0.3,1.5L93,54.4
		c-0.5,0.3-0.9,0.9-0.9,1.5v60h-8V58.6c0-0.9,0-1.9,0-2.8c-0.1-1.5-2-2.2-3.2-2.9L78.6,51.7z M103.7,128.1c-1.2,0.6-2.6,0.9-3.9,0.8
		h-0.2c-0.8,0-1.7,0-2.5,0c-1,0.1-1.7,0.9-1.6,1.9c0.1,0.8,0.7,1.5,1.6,1.6h0.8v37.1c0.2,4.2-2.2,8-6,9.7c-5.1,2-10.8-0.5-12.9-5.5
		c-0.2-0.5-0.4-1.1-0.5-1.6c-0.3-2.1-0.3-4.3-0.2-6.4v-11.9c0-7,0.1-14,0-21v-0.4h0.8c1-0.1,1.7-0.9,1.6-1.9
		c-0.1-0.8-0.7-1.5-1.6-1.6c-1.9,0.2-3.8,0.1-5.7-0.3c-2.5-0.9-3.7-3.7-2.8-6.1c0.1-0.4,0.3-0.7,0.5-1c1.9-2.8,6.1-2,9-2h19.7
		c1.2-0.1,2.5,0.1,3.6,0.6c2.3,1.3,3.1,4.2,1.8,6.5C104.8,127.1,104.3,127.7,103.7,128.1z"/>
	<path class="st0" d="M198,59c0.1-1,0-2-0.3-2.9c-0.5-1.6-1.7-3-3.2-3.8c-5.7-3.1-11.4-6.1-17.2-9.2l-9.1-4.9
		c-1.8-1-3.7-1.6-5.7-1.8c0.2-2.3-0.5-4.5-1.9-6.4c-1.9-2.3-4.6-2.7-7.3-2.7h-7.5c-2.5,0-4.9,0-7,1.7c-1.8,1.4-2.9,3.5-3,5.8
		c0,0.5,0,1,0,1.5h-18.1c-1.8,0-4.3-0.4-5.9,0.7c-1.4,1-2.1,2.7-1.9,4.4v17.4c0,1,0,2.1,0,3.1c0,2.4,2,4.3,4.4,4.3
		c0.1,0,0.1,0,0.2,0h5c1-0.1,1.7-0.9,1.6-1.9c-0.1-0.8-0.7-1.5-1.6-1.6h-4.9c-1,0-1.2-0.4-1.2-1.3V41c0-0.6,0-1.1,0.8-1.1
		c0.6,0,1.2,0,1.8,0h43.2c2-0.2,4.1,0,6,0.7c2,0.9,3.9,2.1,5.8,3.1l20.1,10.8l1.5,0.8c2.1,1.1,1.7,3.1,1.7,5c0,0.8,0.4,2.4-0.8,2.5
		c-0.4,0-0.9,0-1.3,0h-61.1c-1,0.1-1.7,0.9-1.6,1.9c0.1,0.8,0.7,1.5,1.6,1.6h4.6v103.3c-0.3,7.3,5.5,13.5,12.8,13.8
		c6.4,0.2,12-4.1,13.4-10.3c0.3-1.9,0.4-3.7,0.4-5.6V66.2H191c1.9,0,3.9,0.3,5.5-1C198.4,63.7,198,61.1,198,59z M141.6,36.4h-2.2
		c-0.2-1.4,0.2-2.9,1.1-4c1.3-1.5,3.1-1.5,4.9-1.5h6.9c1.7-0.3,3.4,0,4.9,0.7c1.5,1.1,2.2,3,1.9,4.8H141.6z M159,76.7v92.6
		c0.2,3.8-1.7,7.4-5,9.4c-4.7,2.6-10.7,0.9-13.3-3.8c-0.8-1.5-1.2-3.1-1.2-4.8c0-1.1,0-2.2,0-3.4V66.3H159V76.7z"/>
</g>
</svg>
