<?xml version="1.0" encoding="utf-8"?>
<!-- Generator: Adobe Illustrator 25.0.0, SVG Export Plug-In . SVG Version: 6.00 Build 0)  -->
<svg version="1.1" id="Layer_1" xmlns="http://www.w3.org/2000/svg" xmlns:xlink="http://www.w3.org/1999/xlink" x="0px" y="0px"
	 viewBox="0 0 500 500" style="enable-background:new 0 0 500 500;" xml:space="preserve">
<style type="text/css">
	.st0{fill:#213970;}
	.st1{fill:#2269B2;}
	.st2{fill:none;}
</style>
<g>
	<path class="st0" d="M176.9,354.5l-0.5-28.6c-14.3,23.2-36,34.7-65.2,34.7c-14.9,0-28.6-2.9-40.9-8.6c-12.4-5.7-23-14-31.9-24.8
		c-8.9-10.8-15.9-24-20.9-39.5c-5.1-15.5-7.6-33.2-7.6-52.8c0-17.8,2.1-34,6.4-48.8c4.3-14.8,10.5-27.5,18.8-38.3
		c8.2-10.8,18.3-19.1,30.2-25c11.9-5.9,25.5-8.8,40.7-8.8c28.9,0,52,12.2,69.5,36.6V34.6h60.9v319.8H176.9z M125.5,310.2
		c14.9,0,27.4-6.2,37.4-18.6c10-12.4,15-28.6,15-48.5c0-50.8-17.3-76.2-51.9-76.2c-35.5,0-53.3,24.1-53.3,72.3
		c0,20.9,4.9,38,14.8,51.2C97.3,303.6,110,310.2,125.5,310.2z"/>
	<path class="st1" d="M263.6,465.4V120.3h59.5l0.5,28.6c14.3-23.2,36-34.7,65.2-34.7c14.6,0,28.2,2.9,40.7,8.6
		c12.5,5.7,23.2,14,32.1,24.8c8.9,10.8,15.9,24,20.9,39.5c5.1,15.5,7.6,33.2,7.6,52.8c0,17.8-2.1,34-6.4,48.8
		c-4.3,14.8-10.6,27.5-18.8,38.3c-8.3,10.8-18.3,19.1-30.2,25c-11.9,5.9-25.5,8.8-40.7,8.8c-28.9,0-52-12.2-69.5-36.6v141.4H263.6z
		 M374,307.8c35.5,0,53.3-24.1,53.3-72.3c0-20.9-4.9-38-14.8-51.2c-9.8-13.2-22.5-19.8-38.1-19.8c-14.9,0-27.4,6.2-37.4,18.6
		c-10,12.4-15,28.6-15,48.5C322.1,282.4,339.4,307.8,374,307.8z"/>
</g>
<rect x="562.3" y="98.9" class="st2" width="255.1" height="141.7"/>
</svg>
