<?xml version="1.0" encoding="utf-8"?>
<!-- Generator: Adobe Illustrator 25.0.0, SVG Export Plug-In . SVG Version: 6.00 Build 0)  -->
<svg version="1.1" id="Layer_1" xmlns="http://www.w3.org/2000/svg" xmlns:xlink="http://www.w3.org/1999/xlink" x="0px" y="0px"
	 viewBox="0 0 250 150" style="enable-background:new 0 0 250 250;" xml:space="preserve">
<style type="text/css">
	.st0{fill:#777776;}
	.st1{fill:#213970;}
</style>
<path class="st0" d="M87.4,178.7L87.2,164c-7.3,11.9-18.5,17.9-33.5,17.9c-7.7,0-14.7-1.5-21-4.4s-11.8-7.2-16.4-12.7
	c-4.6-5.5-8.2-12.3-10.8-20.3c-2.6-8-3.9-17-3.9-27.2c0-9.1,1.1-17.5,3.3-25.1c2.2-7.6,5.4-14.2,9.7-19.7c4.2-5.5,9.4-9.8,15.5-12.8
	c6.1-3,13.1-4.5,20.9-4.5c14.8,0,26.8,6.3,35.7,18.8V14.3H118v164.4H87.4z M61,156c7.7,0,14.1-3.2,19.2-9.5c5.1-6.4,7.7-14.7,7.7-25
	c0-26.1-8.9-39.2-26.7-39.2c-18.3,0-27.4,12.4-27.4,37.2c0,10.8,2.5,19.5,7.6,26.3C46.5,152.6,53,156,61,156z"/>
<path class="st1" d="M132,235.7V58.3h30.6l0.2,14.7c7.3-11.9,18.5-17.9,33.5-17.9c7.5,0,14.5,1.5,20.9,4.4
	c6.4,2.9,11.9,7.2,16.5,12.7c4.6,5.5,8.2,12.3,10.8,20.3c2.6,8,3.9,17,3.9,27.2c0,9.1-1.1,17.5-3.3,25.1c-2.2,7.6-5.4,14.2-9.7,19.7
	c-4.2,5.5-9.4,9.8-15.5,12.8c-6.1,3-13.1,4.5-20.9,4.5c-14.8,0-26.8-6.3-35.7-18.8v72.7H132z M188.7,154.7
	c18.3,0,27.4-12.4,27.4-37.2c0-10.8-2.5-19.5-7.6-26.3c-5.1-6.8-11.6-10.2-19.6-10.2c-7.7,0-14.1,3.2-19.2,9.5
	c-5.1,6.4-7.7,14.7-7.7,25C162.1,141.7,171,154.7,188.7,154.7z"/>
</svg>
