<svg id="Layer_4" data-name="Layer 4" xmlns="http://www.w3.org/2000/svg" viewBox="0 0 1920 1080"><defs><style>.cls-1{fill:#fff;}.cls-2{fill:#0069c5;}</style></defs><rect class="cls-1" y="381.7993" width="6" height="2"/><path class="cls-1" d="M1370.6729,383.7993h-11.9708v-2h11.9708Zm-23.9424,0H1334.76v-2h11.9707Zm-23.9414,0h-11.9707v-2h11.9707Zm-23.9414,0H1286.877v-2h11.9707Zm-23.9415,0h-11.9707v-2h11.9707Zm-23.9414,0h-11.9716v-2h11.9716Zm-23.9423,0h-11.9707v-2h11.9707Zm-23.9414,0H1191.11v-2h11.9707Zm-23.9415,0h-11.9707v-2H1179.14Zm-23.9423,0h-11.9707v-2h11.9707Zm-23.9414,0h-11.9707v-2h11.9707Zm-23.9414,0h-11.9707v-2h11.9707Zm-23.9415,0h-11.9707v-2h11.9707Zm-23.9414,0H1047.46v-2h11.9716Zm-23.9423,0h-11.9707v-2h11.9707Zm-23.9414,0H999.5771v-2h11.9708Zm-23.9415,0H975.6357v-2h11.9707Zm-23.9414,0H951.6934v-2H963.665Zm-23.9423,0H927.752v-2h11.9707Zm-23.9415,0H903.8105v-2h11.9707Zm-23.9414,0H879.8691v-2H891.84Zm-23.9414,0H855.9277v-2h11.9707Zm-23.9423,0H831.9854v-2h11.9707Zm-23.9415,0H808.0439v-2h11.9707Zm-23.9414,0H784.1025v-2h11.9707Zm-23.9414,0H760.16v-2h11.9716Zm-23.9423,0H736.2188v-2H748.19Zm-23.9415,0H712.2773v-2H724.248Zm-23.9414,0H688.3359v-2h11.9707Zm-23.9414,0H664.3936v-2h11.9716Zm-23.9423,0H640.4521v-2h11.9708Zm-23.9415,0H616.5107v-2h11.9707Zm-23.9414,0H592.5693v-2H604.54Zm-23.9414,0H568.627v-2h11.9716Zm-23.9424,0H544.6855v-2h11.9707Zm-23.9414,0H520.7441v-2h11.9707Zm-23.9414,0H496.8027v-2h11.9707Zm-23.9414,0H472.8613v-2H484.832Zm-23.9414,0H448.9189v-2h11.9717Zm-23.9424,0H424.9775v-2h11.9707Zm-23.9414,0H401.0361v-2h11.9707Zm-23.9414,0H377.0947v-2h11.9707Zm-23.9414,0H353.1533v-2H365.124Zm-23.9414,0H329.2109v-2h11.9717Zm-23.9424,0H305.27v-2H317.24Zm-23.9414,0H281.3281v-2h11.9707Zm-23.9414,0H257.3867v-2h11.9707Zm-23.9414,0H233.4453v-2H245.416Zm-23.9414,0H209.5039v-2h11.9707Zm-23.9424,0H185.5615v-2h11.9707Zm-23.9414,0H161.62v-2h11.9707Zm-23.9414,0H137.6787v-2h11.9707Zm-23.9414,0H113.7373v-2H125.708Zm-23.9414,0H89.7959v-2h11.9707Zm-23.9424,0H65.8535v-2H77.8242Zm-23.9414,0H41.9121v-2H53.8828Zm-23.9414,0H17.9707v-2H29.9414Z"/><polygon class="cls-1" points="1389.642 388.799 1387.642 388.799 1387.642 383.799 1382.642 383.799 1382.642 381.799 1389.642 381.799 1389.642 388.799"/><path class="cls-1" d="M1389.6416,435.1992h-2V423.6h2Zm0-23.2h-2v-11.6h2Z"/><polygon class="cls-1" points="1394.642 453.799 1387.642 453.799 1387.642 446.799 1389.642 446.799 1389.642 451.799 1394.642 451.799 1394.642 453.799"/><rect class="cls-1" x="1408.9492" y="451.7993" width="14.3076" height="2"/><rect class="cls-1" x="1437.5635" y="451.7993" width="6" height="2"/><rect class="cls-2" x="1443.3779" y="451.7993" width="6" height="2"/><path class="cls-2" d="M1902.0869,453.7993h-11.914v-2h11.914Zm-23.8271,0h-11.9131v-2H1878.26Zm-23.8272,0H1842.52v-2h11.9131Zm-23.8262,0h-11.914v-2h11.914Zm-23.8271,0h-11.9131v-2h11.9131Zm-23.8272,0h-11.913v-2h11.913Zm-23.8261,0h-11.9141v-2h11.9141Zm-23.8272,0h-11.9131v-2h11.9131Zm-23.8261,0h-11.9141v-2h11.9141Zm-23.8272,0h-11.9131v-2h11.9131Zm-23.8271,0h-11.9131v-2h11.9131Zm-23.8262,0h-11.9141v-2h11.9141Zm-23.8272,0h-11.913v-2h11.913Zm-23.8271,0h-11.9131v-2h11.9131Zm-23.8262,0h-11.914v-2h11.914Zm-23.8271,0h-11.9131v-2h11.9131Zm-23.8262,0h-11.9141v-2h11.9141Zm-23.8272,0h-11.913v-2h11.913Zm-23.8271,0H1461.291v-2h11.9131Z"/><rect class="cls-2" x="1914" y="451.7993" width="6" height="2"/></svg>