<svg id="Capa_1" data-name="Capa 1" xmlns="http://www.w3.org/2000/svg" viewBox="0 0 200 200"><defs><style>.cls-1{fill:#c6c6c6;}</style></defs><title>documentos_banner</title><path class="cls-1" d="M159.72,59.15l-47.79-47.8a16.85,16.85,0,0,0-23.86,0L40.26,59.15A16.87,16.87,0,0,0,64.12,83l19-19v66.45a16.87,16.87,0,0,0,33.74,0V64l19,19a16.87,16.87,0,1,0,23.85-23.86Z"/><path class="cls-1" d="M155.62,138.58a16.87,16.87,0,0,0-16.87,16.87v4.4H61.25v-4.4a16.87,16.87,0,0,0-33.74,0v21.28A16.87,16.87,0,0,0,44.38,193.6H155.62a16.87,16.87,0,0,0,16.87-16.87V155.45A16.87,16.87,0,0,0,155.62,138.58Z"/></svg>