<svg id="Capa_1" data-name="Capa 1" xmlns="http://www.w3.org/2000/svg" viewBox="0 0 200 200"><defs><style>.cls-1{fill:#06c79c;}</style></defs><title>tick</title><path class="cls-1" d="M177,8c-7.36-4.31-19.16-2.21-23.1,6.05q-27.64,58.08-55.3,116.14c-4.09,8.59-7.74,17.63-12.49,25.88-.19.33-.63.92-1,1.49-13.52-16.48-25.75-34.27-38.56-51.31C41.07,99,32,95.26,23.44,100.24c-7.17,4.19-11.57,15.77-6.06,23.09l24,31.86c7.17,9.54,13.84,20.06,21.91,28.85,8.42,9.17,21,12.84,32.63,7.89,9.87-4.2,16.68-13.17,21.36-22.54,22.8-45.63,43.9-92.2,65.83-138.26C187,22.91,185.35,12.91,177,8ZM88.14,161.4c.16.11.49.2.47.33S88.4,161.67,88.14,161.4Z"/></svg>