<svg height="1000" viewBox="0 0 1000 1000" width="1000" xmlns="http://www.w3.org/2000/svg"><g fill="none" fill-rule="evenodd" transform="translate(-1)"><path d="m1000.54298 168.639045c-.4368-92.9733147-75.933991-168.2148877-168.997193-168.2148877-23.123596 0-45.789326 4.39325843-65.221911 13.0575843l-615.828651 261.5182584c-87.7654497 37.120787-149.4957868 124.094101-149.4957868 225.220506v330.769663c0 93.327247 75.6587079 169.009831 169.0210678 169.009831 23.675561 0 46.195224-4.900281 66.669943-13.698034l613.20927-260.360955c88.376405-36.870786 150.660111-124.136236 150.660111-225.720505z" fill="#fc4c02"/><g fill="#fff"><path d="m433.994352 633c-7.171115 0-12.994352-6.448518-12.994352-14.399278v-304.187534c0-7.956325 5.823237-14.413188 12.994352-14.413188 7.183666 0 13.005648 6.456863 13.005648 14.413188v304.187534c0 7.95076-5.821982 14.399278-13.005648 14.399278"/><path d="m547 619.416872v-237.839379c0-8.050867-5.827738-14.577493-13.030771-14.577493-7.162843 0-12.969229 6.526626-12.969229 14.577493v237.839379c0 8.050867 5.806386 14.583128 12.969229 14.583128 7.203033 0 13.030771-6.532261 13.030771-14.583128"/><path d="m547 313.376582v-.748289c0-6.971032-5.827738-12.628293-13.030771-12.628293-7.162843 0-12.969229 5.657261-12.969229 12.628293v.748289c0 6.974688 5.806386 12.623418 12.969229 12.623418 7.203033 0 13.030771-5.64873 13.030771-12.623418"/><path d="m343.69046 600.935225c5.746053-5.693949 5.746053-14.931646 0-20.615732-5.744634-5.703812-15.051083-5.703812-20.764472 0-42.405196 42.016302-111.353581 42.016302-153.743154 0-42.390994-42.079709-42.390994-110.504325 0-152.554443 20.524461-20.364922 47.833128-31.586554 76.851694-31.586554 29.056911 0 56.334335 11.221632 76.858796 31.586554 5.746053 5.708039 15.052502 5.708039 20.797136 0 5.746053-5.706631 5.746053-14.928828 0-20.631232-26.07595-25.88415-60.753939-40.133818-97.655932-40.133818-36.88495 0-71.555838 14.249668-97.64883 40.133818-53.8475972 53.422518-53.8475972 140.349299 0 193.801407 26.928059 26.716895 62.273532 40.064775 97.664452 40.064775 35.352575 0 70.712251-13.34788 97.64031-40.064775"/><path d="m650.171478 692.444719v-188.727991c0-59.334596 48.364129-107.614602 107.835566-107.614602 59.457349 0 107.836976 48.280006 107.836976 107.614602 0 59.345843-48.379627 107.607572-107.836976 107.607572-34.285573 0-57.489197-13.072057-57.666711-13.146569-6.941363-4.065863-15.890326-1.762999-19.961879 5.176523-4.054647 6.946551-1.72724 15.852926 5.208488 19.937065 1.197515.698732 29.816727 17.144948 72.420102 17.144948 75.547731 0 136.992956-61.332379 136.992956-136.719539 0-75.388566-61.445225-136.716728-136.992956-136.716728-75.554775 0-137.007044 61.328162-137.007044 136.716728v188.727991c0 8.024876 6.542661 14.555281 14.58433 14.555281 8.050122 0 14.587148-6.530405 14.587148-14.555281"/></g><path d="m998 789c0 23.20442-18.79558 42-42 42s-42-18.79558-42-42 18.79558-42 42-42 42 18.79558 42 42zm-6.61326 0c0-19.723757-15.895027-35.850829-35.38674-35.850829s-35.270718 16.127072-35.270718 35.850829 15.779005 35.850829 35.270718 35.850829 35.38674-16.127072 35.38674-35.850829zm-17.751381 22.972376h-7.425414l-10.558011-18.79558h-6.961326v18.79558h-6.381216v-46.060774h15.662984c8.005525 0 14.502762 6.033149 14.502762 13.80663 0 6.729282-4.176795 10.906077-9.861878 12.646409zm-7.657458-32.254144c0-4.640884-3.596686-8.121547-8.701658-8.121547h-8.585635v16.127072h8.585635c5.104972 0 8.701658-3.364641 8.701658-8.005525z" fill="#fc4c02"/></g></svg>