<svg width="600" height="500" xmlns="http://www.w3.org/2000/svg" data-name="Layer 1">

 <g>
  <title>Layer 1</title>
  <g id="svg_31">
   <path id="svg_1" fill="#7a84ab" d="m1.91826,238.48173l0.10857,-0.14477l0.18096,0.07238a9.18056,9.18056 0 0 1 0,7.75703l-0.18096,0l-0.15683,-0.10857l0.04826,-7.57607z" class="cls-1"/>
   <path id="svg_2" fill="#0c1d66" d="m2.25604,246.16638l0,-7.75703c0.72383,-10.18186 4.00518,-19.16939 12.44985,-25.5994c6.17667,-4.70489 13.37877,-6.17667 20.99103,-6.0319c6.67129,0.09651 13.04098,1.32702 18.62652,5.25982a22.31805,22.31805 0 0 1 9.15643,14.75404c0.2654,1.3994 0.14477,2.17149 -1.68893,2.08704c-3.47438,-0.16889 -6.97288,-0.07238 -10.45932,0c-0.9651,0 -1.59242,-0.12064 -1.89402,-1.20638c-2.07498,-7.80528 -7.23829,-10.4352 -13.27019,-10.72473c-8.2999,-0.41017 -13.71655,2.76261 -16.78076,9.73549s-3.20897,14.64547 -2.41276,22.20947a27.54168,27.54168 0 0 0 3.25723,10.85743c3.31755,5.88714 8.58943,8.19133 15.07976,7.98624c7.02114,-0.21715 11.94317,-3.5347 14.12672,-10.35075a2.17149,2.17149 0 0 1 2.54546,-1.79751c3.41406,0.12064 6.84018,0.09651 10.25424,0c1.48385,0 1.82164,0.31366 1.41147,1.80957c-3.00389,11.19522 -10.4352,17.6011 -21.65454,19.60369c-8.10688,1.44766 -16.17757,1.06162 -23.78983,-2.48514c-8.90309,-4.13789 -13.14955,-11.73809 -15.10389,-20.91865a34.98505,34.98505 0 0 1 -0.84447,-7.43131z" class="cls-2"/>
   <path id="svg_3" fill="#838080" d="m396.95977,217.88881q-7.1659,23.18664 -14.31974,46.25265c-1.20638,3.73978 -2.54546,7.43131 -3.82423,11.1349c-0.20508,0.62732 -0.33779,1.2667 -1.2667,1.20638c-4.28265,0 -8.55324,0 -13.06511,0c1.5321,-4.41535 2.99182,-8.61356 4.43948,-12.82383c6.17667,-17.89063 12.38953,-35.78126 18.49382,-53.69602c0.63938,-1.88195 1.42353,-2.59372 3.48644,-2.50927c4.62044,0.19302 9.25294,0.09651 13.87338,0a2.03878,2.03878 0 0 1 2.32832,1.55623q11.82253,32.75324 23.74158,65.44617c0.54287,1.49591 0.53081,2.11117 -1.35115,2.05085c-3.75184,-0.1327 -7.51575,-0.08445 -11.2676,0a1.90608,1.90608 0 0 1 -2.15942,-1.48385c-3.92074,-10.62822 -7.17797,-21.46152 -10.59202,-32.25863c-2.60578,-8.19133 -5.73031,-16.21376 -8.10688,-24.47747c-0.04826,-0.12064 -0.25334,-0.24128 -0.41017,-0.39811z" class="cls-3"/>
   <path id="svg_4" fill="#0c1d66" d="m84.59154,276.57924c3.3658,-9.73549 6.62303,-19.16939 9.88026,-28.61536q6.65922,-19.3021 13.27019,-38.53181a2.21974,2.21974 0 0 1 2.55753,-1.79751c4.95823,0.09651 9.91645,0.07238 14.88674,0a1.66481,1.66481 0 0 1 1.88195,1.2667q12.06381,33.3685 24.12762,66.7008a7.39512,7.39512 0 0 1 0.19302,0.9651c-4.68076,0 -9.27707,0 -13.88545,0c-1.20638,0 -1.14606,-0.92891 -1.41147,-1.60449c-3.86042,-10.06122 -6.88844,-20.41197 -10.16979,-30.6662c-2.81087,-8.81864 -6.17667,-17.44427 -8.68594,-26.54038a3.14865,3.14865 0 0 0 -0.4343,0.63938c-3.38993,12.73938 -8.07069,25.08066 -11.6657,37.75972c-1.77338,6.50239 -4.18614,12.7997 -6.22493,19.18146c-0.24128,0.73589 -0.44636,1.27876 -1.44766,1.2667c-4.21027,-0.06032 -8.4326,-0.02413 -12.87209,-0.02413z" class="cls-2"/>
   <path id="svg_5" fill="#848080" d="m319.58249,247.10736c0,-8.95135 -0.07238,-17.91476 0,-26.8661c0,-1.99053 -0.60319,-2.41276 -2.49721,-2.41276c-5.69412,0.12064 -11.4003,0 -17.09442,0.07238c-1.42353,0 -1.88195,-0.45842 -1.82164,-1.84576a42.70589,42.70589 0 0 0 0,-6.21286c-0.19302,-2.05085 0.63938,-2.41276 2.48514,-2.41276c15.68295,0.07238 31.36591,0 47.04886,0c1.95434,0 3.89661,0 5.83888,0c1.20638,0 1.66481,0.31366 1.61655,1.5683c-0.08445,2.34038 -0.09651,4.68076 0,7.02114c0.07238,1.43559 -0.47049,1.80957 -1.84576,1.79751c-5.69412,-0.06032 -11.4003,0 -17.09442,-0.07238c-1.90608,0 -2.47308,0.42223 -2.41276,2.41276c0.08445,18.09571 0,36.08285 0.09651,54.13031c0,1.78544 -0.47049,2.28006 -2.24387,2.19561c-3.20897,-0.14477 -6.44207,-0.15683 -9.65105,0c-1.89402,0.09651 -2.50927,-0.42223 -2.48514,-2.41276c0.10857,-8.91516 0.06032,-17.87857 0.06032,-26.96261z" class="cls-4"/>
   <path id="svg_6" fill="#848080" d="m456.31371,242.08881c0,-10.85743 0,-21.71486 0,-32.65673c0,-1.45972 0.34985,-1.9664 1.89402,-1.91815c3.41406,0.10857 6.84018,0.10857 10.25424,0c1.5683,-0.06032 2.01466,0.39811 2.01466,1.99053c0,18.09571 0,36.19143 -0.08445,54.28714c0,1.86989 0.36191,2.48514 2.41276,2.41276c10.12154,-0.12064 20.24307,0 30.36461,-0.08445c1.77338,0 2.55753,0.20508 2.00259,2.268a45.77009,45.77009 0 0 0 -0.97717,6.30937c-0.15683,1.20638 -0.57906,1.80957 -2.00259,1.79751q-22.02852,-0.07238 -44.03291,0c-1.41147,0 -1.80957,-0.41017 -1.79751,-1.79751c-0.02413,-10.8333 -0.04826,-21.71486 -0.04826,-32.60848z" class="cls-4"/>
   <path id="svg_7" fill="#0c1d66" d="m521.97703,278.78692l9.78375,-12.63081c5.7665,-7.45543 11.50887,-14.91087 17.33569,-22.31805a1.80957,1.80957 0 0 0 0,-2.69023q-12.49811,-16.17757 -24.91177,-32.42752c-0.38604,-0.50668 -0.74796,-1.04955 -1.31496,-1.84576c6.30937,0 12.30509,0 18.3008,0c0.8324,0 1.20638,0.50668 1.5683,1.04955c7.35892,10.49551 15.32104,20.5688 22.1009,31.45035a2.15942,2.15942 0 0 1 0.20508,2.64197c-7.15384,12.64287 -16.11725,24.05524 -24.48953,35.86571c-0.3016,0.42223 -0.567,0.92891 -1.20638,0.92891l-17.37189,-0.02413z" class="cls-2"/>
   <path id="svg_8" fill="#0c1d66" d="m257.52626,242.10088c0,-10.85743 0,-21.63041 0,-32.45165c0,-1.52004 0.31366,-2.08704 1.9664,-2.01466c3.47438,0.1327 6.96082,0.08445 10.44726,0c1.20638,0 1.74925,0.19302 1.73719,1.60449q0,32.9342 0,65.89253c0,1.09781 -0.2654,1.48385 -1.43559,1.45972c-3.67946,-0.07238 -7.35892,-0.08445 -11.05045,0c-1.32702,0 -1.66481,-0.37398 -1.65274,-1.67687c0.01206,-10.91775 -0.01206,-21.87169 -0.01206,-32.81356z" class="cls-2"/>
   <path id="svg_9" fill="#0c1d66" d="m570.49767,242.35422l27.25215,36.10698c-0.59113,0.567 -1.20638,0.31366 -1.78544,0.31366c-5.16331,0 -10.32662,0 -15.48993,0a2.81087,2.81087 0 0 1 -2.61785,-1.37527q-7.05733,-9.98883 -14.24736,-19.86909a2.19561,2.19561 0 0 1 -0.20508,-2.835c2.36451,-3.95693 4.6325,-8.02243 7.09352,-12.34128z" class="cls-2"/>
   <path id="svg_10" fill="#0c1d66" d="m596.90535,206.87455l-7.78116,9.81994c-5.6338,7.12971 -11.29173,14.2353 -16.88933,21.38913c-0.86859,1.12193 -1.32702,1.61655 -2.29212,0c-1.84576,-3.01595 -3.86042,-5.93539 -5.91127,-8.81864a1.58036,1.58036 0 0 1 0.10857,-2.2318q7.11765,-9.55454 14.18704,-19.15733c0.38604,-0.51874 0.71176,-1.04955 1.54417,-1.04955c5.53729,0.06032 11.06251,0.04826 17.0341,0.04826z" class="cls-2"/>
   <path id="svg_11" fill="#050505" d="m515.7883,287.11095c0,2.56959 0.06032,4.74108 0,6.91256c0,0.61525 0.66351,1.76132 -0.78415,1.79751c-1.64068,0 -0.86859,-1.20638 -0.90479,-1.89402c-0.10857,-2.06291 -0.08445,-4.13789 0,-6.2008c0,-0.63938 -0.49462,-1.68893 0.49462,-1.84576s2.19561,-0.49462 3.01595,0.80828c1.2667,1.95434 2.70229,3.8001 4.07757,5.69412c0.25334,0.34985 0.54287,0.67557 1.14606,1.42353c0,-2.41276 0,-4.41535 0,-6.38176c0,-0.59113 -0.50668,-1.58036 0.79621,-1.62861s0.89272,1.06162 0.91685,1.71306c0.06032,2.20768 0.06032,4.41535 0,6.61097c0,0.57906 0.47049,1.48385 -0.51874,1.67687a2.08704,2.08704 0 0 1 -2.41276,-0.85653c-1.48385,-2.20768 -3.08834,-4.35504 -4.65663,-6.51446c-0.3016,-0.34985 -0.60319,-0.65145 -1.17019,-1.31496z" class="cls-5"/>
   <path id="svg_12" fill="#050505" d="m484.00016,286.92999l0,7.62433c0,0.67557 0.12064,1.33908 -0.95304,1.30289s-0.80828,-0.68764 -0.80828,-1.20638c0,-2.268 -0.06032,-4.53599 0,-6.80399c0,-0.65145 -0.67557,-1.78544 0.60319,-1.95434c1.06162,-0.1327 2.17149,-0.32572 2.97976,0.94098c1.47178,2.268 3.14865,4.41535 5.13918,7.15384l0,-6.84018c0,-0.66351 -0.14477,-1.36321 0.95304,-1.31496s0.79621,0.68764 0.79621,1.20638c0,2.34038 0,4.68076 0,7.00907c0,0.59113 0.44636,1.49591 -0.45842,1.72512a2.06291,2.06291 0 0 1 -2.41276,-0.77208c-1.78544,-2.61785 -3.65533,-5.03061 -5.83888,-8.07069z" class="cls-5"/>
   <path id="svg_13" d="m435.28649,290.79041c0,-1.59242 -0.62732,-3.72772 0.15683,-4.6325s3.14865,-0.25334 4.82552,-0.33779c1.0013,-0.06032 2.00259,0 3.01595,0c0.4343,0 0.98923,-0.1327 0.95304,0.63938s-0.61525,0.54287 -1.02542,0.55494c-1.67687,0 -3.35374,0.08445 -5.01854,0c-1.20638,-0.07238 -1.20638,0.57906 -1.20638,1.45972s0.12064,1.47178 1.2667,1.3994c1.67687,-0.09651 3.35374,0 5.01854,0c0.4343,0 1.0013,-0.16889 0.97717,0.61525s-0.59113,0.567 -1.01336,0.567c-1.67687,0 -3.35374,0.09651 -5.01854,0s-1.20638,1.02542 -1.20638,1.84576s-0.42223,1.93021 1.20638,1.80957s3.34168,0 5.00648,0c0.4343,0 1.0013,-0.18096 0.98923,0.60319s-0.57906,0.57906 -1.0013,0.57906c-2.34038,0 -4.68076,0 -7.02114,0c-0.82034,0 -1.03749,-0.28953 -1.0013,-1.04955c0,-1.32702 0,-2.6661 0,-4.00518l0.09651,-0.04826z"/>
   <path id="svg_14" d="m560.96726,285.80806l3.41406,0c0.4343,0 0.98923,-0.15683 0.9651,0.62732s-0.60319,0.55494 -1.02542,0.567c-1.66481,0 -3.34168,0.08445 -5.01854,0c-1.20638,-0.07238 -1.20638,0.55494 -1.20638,1.44766s0.09651,1.48385 1.20638,1.41147c1.67687,-0.09651 3.35374,0 5.01854,0c0.42223,0 1.0013,-0.18096 0.98923,0.60319s-0.59113,0.57906 -1.0013,0.57906c-1.67687,0 -3.35374,0.09651 -5.01854,0s-1.20638,1.0013 -1.20638,1.8337s-0.4343,1.94227 1.20638,1.82164s3.48644,0 5.22363,0c0.41017,0 0.79621,0 0.79621,0.60319s-0.38604,0.60319 -0.79621,0.60319c-2.47308,0 -4.94616,0 -7.41924,0c-1.01336,0 -0.79621,-0.67557 -0.79621,-1.20638c0,-2.5334 0,-5.0668 0,-7.6002c0,-0.98923 0.27747,-1.27876 1.20638,-1.20638s2.31625,-0.08445 3.46231,-0.08445z"/>
   <path id="svg_15" fill="#030303" d="m541.01372,287.79859a9.65105,9.65105 0 0 0 -5.11506,-1.20638c-2.60578,0.15683 -4.28265,1.76132 -4.24646,4.1017s1.701,3.75184 4.2344,3.92074a9.5666,9.5666 0 0 0 5.01854,-1.09781c0.24128,1.32702 0.24128,1.33908 -0.63938,1.65274a10.74885,10.74885 0 0 1 -6.87637,0.22921a4.71695,4.71695 0 0 1 -3.61914,-4.88584a4.82552,4.82552 0 0 1 3.61914,-4.69282a12.46192,12.46192 0 0 1 6.71954,0.06032c1.07368,0.2654 1.25464,0.85653 0.90479,1.91815z" class="cls-6"/>
   <path id="svg_16" fill="#030303" d="m357.53524,287.82272a9.38564,9.38564 0 0 0 -5.35633,-1.20638a3.99312,3.99312 0 0 0 -0.18096,7.98624a9.25294,9.25294 0 0 0 4.69282,-0.73589c0.2654,-0.12064 0.6997,-0.6997 0.91685,0c0.1327,0.42223 0.33779,1.01336 -0.47049,1.27876c-2.95563,0.94098 -5.88714,1.20638 -8.69801,-0.37398a4.40329,4.40329 0 0 1 -2.15942,-4.42742a4.48774,4.48774 0 0 1 2.72642,-4.08963a11.14696,11.14696 0 0 1 7.82941,-0.25334c1.07368,0.22921 0.90479,0.91685 0.6997,1.82164z" class="cls-6"/>
   <path id="svg_17" fill="#040404" d="m366.8485,285.796l4.82552,0c0.37398,0 0.82034,-0.09651 0.88066,0.50668s-0.41017,0.6997 -0.89272,0.6997l-0.41017,0c-3.61914,0.12064 -3.61914,0.12064 -3.61914,3.61914c0,1.3994 0,2.81087 0,4.21027c0,0.84447 -0.37398,0.9651 -1.08574,0.97717s-0.85653,-0.38604 -0.84447,-0.98923c0,-2.14736 -0.06032,-4.28265 0,-6.41795c0,-1.10987 -0.24128,-1.58036 -1.41147,-1.44766a14.64547,14.64547 0 0 1 -2.41276,0c-0.41017,0 -1.01336,0.22921 -1.04955,-0.54287s0.66351,-0.63938 1.134,-0.65145c1.66481,0.02413 3.26929,0.03619 4.88584,0.03619z" class="cls-7"/>
   <path id="svg_18" d="m458.42488,290.68184c0.07238,-1.5683 -0.4343,-3.76391 0.39811,-4.56012s3.02802,-0.27747 4.62044,-0.31366c1.0013,0 2.00259,0 3.00389,0c0.41017,0 0.80828,0 0.80828,0.60319s-0.39811,0.59113 -0.80828,0.59113c-1.66481,0 -3.34168,0.08445 -5.00648,0c-1.33908,-0.08445 -1.09781,0.73589 -1.134,1.5321s0,1.3994 1.12193,1.32702c1.32702,-0.09651 2.67817,0 4.00518,0c0.37398,0 0.82034,-0.09651 0.88066,0.49462s-0.41017,0.6997 -0.89272,0.6997c-1.2667,0 -2.54546,0.07238 -3.81216,0c-1.08574,-0.08445 -1.41147,0.32572 -1.31496,1.35115s0,1.73719 0,2.60578s-0.27747,0.89272 -0.94098,0.89272s-0.91685,-0.3016 -0.89272,-0.9651c0,-1.38734 0,-2.78674 0,-4.18614l-0.03619,-0.07238z"/>
   <path id="svg_19" d="m319.58249,290.68184c0.08445,-1.5683 -0.42223,-3.76391 0.41017,-4.56012s3.01595,-0.27747 4.60838,-0.31366c1.01336,0 2.01466,0 3.01595,0c0.41017,0 0.79621,0 0.79621,0.60319s-0.38604,0.59113 -0.79621,0.59113c-1.67687,0 -3.35374,0.08445 -5.01854,0c-1.32702,-0.08445 -1.09781,0.73589 -1.134,1.5321s0,1.3994 1.134,1.32702c1.32702,-0.09651 2.6661,0 4.00518,0c0.37398,0 0.82034,-0.09651 0.88066,0.49462s-0.42223,0.6997 -0.90479,0.6997c-1.20638,0 -2.54546,0.07238 -3.8001,0s-1.41147,0.32572 -1.31496,1.35115s0,1.73719 0,2.60578s-0.27747,0.89272 -0.94098,0.89272s-0.90479,-0.3016 -0.89272,-0.9651c0,-1.38734 0,-2.78674 0,-4.18614l-0.04826,-0.07238z"/>
   <path id="svg_20" fill="#010101" d="m547.84184,295.83308a10.85743,10.85743 0 0 1 -1.3994,0c-0.44636,-0.07238 -1.20638,0.33779 -1.20638,-0.567s0.54287,-0.63938 0.97717,-0.61525c0.95304,0 0.85653,-0.59113 0.85653,-1.20638c0,-1.47178 0,-2.93151 0,-4.39123c0,-0.9651 0.45842,-2.29212 -1.3994,-2.07498c-0.31366,0 -0.42223,-0.24128 -0.4343,-0.53081s0.12064,-0.62732 0.54287,-0.62732l4.21027,0c0.32572,0 0.65145,0 0.6997,0.49462s-0.28953,0.74796 -0.72383,0.68764c-1.10987,-0.15683 -1.14606,0.47049 -1.134,1.30289c0,1.66481 0,3.32961 0,4.99442c0,0.74796 -0.10857,1.50798 1.06162,1.35115c0.42223,-0.06032 0.79621,0.07238 0.78415,0.62732s-0.45842,0.54287 -0.84447,0.55494c-0.65145,0.01206 -1.31496,0 -1.99053,0z" class="cls-8"/>
   <path id="svg_21" fill="#010101" d="m473.84243,295.83308a6.70748,6.70748 0 0 1 -1.20638,0c-0.49462,-0.09651 -1.30289,0.39811 -1.43559,-0.53081s0.65145,-0.63938 1.12193,-0.66351c0.85653,0 0.6997,-0.63938 0.6997,-1.134q0,-2.30419 0,-4.59631c0,-0.92891 0.34985,-2.12323 -1.35115,-1.91815c-0.4343,0 -0.49462,-0.32572 -0.48255,-0.68764s0.37398,-0.47049 0.6997,-0.48255l4.00518,0c0.31366,0 0.67557,0 0.73589,0.45842s-0.18096,0.79621 -0.66351,0.72383c-1.29083,-0.19302 -1.20638,0.63938 -1.20638,1.44766c0,1.3994 0,2.7988 0,4.19821c0,0.97717 -0.4343,2.28006 1.3994,2.03878c0.28953,0 0.41017,0.25334 0.4343,0.54287s-0.21715,0.59113 -0.59113,0.59113l-2.15942,0l0,0.01206z" class="cls-8"/>
   <path id="svg_22" fill="#010101" d="m429.32697,290.06658l0,1.3994c0,3.55882 -2.00259,5.13918 -5.5011,4.30678c-0.49462,-0.12064 -1.07368,-0.19302 -0.9651,-0.9651c0.15683,-1.14606 0.80828,-0.28953 1.20638,-0.24128c2.81087,0.39811 3.48644,-0.16889 3.48644,-2.9677c0,-0.72383 0,-1.47178 0,-2.19561c0.1327,-1.52004 0.14477,-2.85912 -2.05085,-2.41276c-0.37398,0.07238 -0.82034,0 -0.85653,-0.54287s0.36191,-0.61525 0.77208,-0.63938l0.20508,0c3.70359,-0.38604 3.70359,-0.38604 3.70359,4.25852z" class="cls-8"/>
   <path id="svg_23" fill="#0c1d66" d="m225.20731,214.60745c-5.51316,-5.24776 -12.5343,-6.73161 -19.82084,-6.88844c-9.05992,-0.19302 -18.09571,0 -27.1677,-0.08445c-1.59242,0 -1.84576,0.51874 -1.84576,1.93021c0,10.85743 0,21.71486 0,32.48784s0,21.78724 0,32.68086c0,1.44766 0.27747,1.95434 1.85783,1.89402q5.22363,-0.21715 10.45932,0c1.58036,0.06032 1.85783,-0.48255 1.84576,-1.91815c-0.07238,-8.01037 0,-16.0328 0,-24.05524c0,-1.29083 0.31366,-1.74925 1.67687,-1.71306c3.41406,0.09651 6.84018,0 10.25424,0c6.50239,0 12.82383,-0.84447 18.61446,-4.07757c10.966,-6.15254 13.16162,-21.63041 4.12582,-30.25603zm-11.94317,21.36501a11.78634,11.78634 0 0 1 -6.74367,2.835c-4.92203,0.67557 -9.89232,0.33779 -14.85055,0.42223c-1.20638,0 -1.20638,-0.73589 -1.20638,-1.5683l0,-9.40977c0,-3.13659 0,-6.28524 0,-9.42184c0,-0.71176 0,-1.31496 1.0013,-1.27876c5.28395,0.20508 10.60409,-0.47049 15.85185,0.50668c4.02931,0.74796 7.44337,2.60578 8.57737,6.84018s0.62732,7.97418 -2.6661,11.07458l0.03619,0z" class="cls-2"/>
   <path id="svg_24" fill="#010101" d="m381.55429,285.39789c-3.61914,0 -5.88714,1.64068 -6.24905,4.3671c-0.49462,3.70359 1.99053,6.0319 6.35763,6.0319c3.89661,0 6.28524,-1.9664 6.32144,-5.16331s-2.41276,-5.24776 -6.43001,-5.23569zm0,9.22881c-2.76261,0 -4.43948,-1.59242 -4.40329,-4.1017s1.77338,-3.94487 4.58425,-3.92074s4.45155,1.59242 4.40329,4.1017s-1.80957,3.94487 -4.62044,3.92074l0.03619,0z" class="cls-8"/>
   <path id="svg_25" fill="#010101" d="m597.8222,288.92052c-0.6997,-2.19561 -3.02802,-3.52263 -6.16461,-3.52263a7.55194,7.55194 0 0 0 -4.37916,1.20638a5.05474,5.05474 0 0 0 -0.1327,7.96211a8.58943,8.58943 0 0 0 9.08405,0a5.15125,5.15125 0 0 0 1.59242,-5.64586zm-6.15254,5.70618c-2.7988,0 -4.48774,-1.52004 -4.48774,-4.01725s1.701,-4.00518 4.4998,-4.00518s4.48774,1.52004 4.48774,4.01725s-1.701,4.00518 -4.4998,4.00518z" class="cls-8"/>
   <path id="svg_26" fill="#010101" d="m399.71032,291.5625a5.86301,5.86301 0 0 1 0.76002,-0.50668a2.60578,2.60578 0 0 0 1.82164,-2.78674c-0.21715,-1.49591 -1.37527,-1.9664 -2.70229,-2.25593a34.85235,34.85235 0 0 0 -5.38046,-0.21715c-0.72383,0 -0.88066,0.31366 -0.86859,0.9651q0,4.08963 0,8.19133c0,0.72383 0.28953,0.88066 0.95304,0.89272s0.86859,-0.38604 0.8324,-0.98923a3.47438,3.47438 0 0 1 0,-1.0013c0.1327,-0.66351 -0.45842,-1.68893 0.38604,-1.93021a2.73848,2.73848 0 0 1 2.82293,0.41017c0.9651,0.91685 2.02672,1.73719 3.00389,2.65404a2.41276,2.41276 0 0 0 3.01595,0.57906l-4.64457,-4.00518zm-2.7988,-0.91685c-1.54417,0.19302 -1.79751,-0.41017 -1.85783,-1.84576c-0.07238,-1.77338 0.66351,-2.05085 2.13529,-1.78544c1.20638,0.18096 3.18485,-0.34985 3.11246,1.74925s-1.95434,1.68893 -3.38993,1.88195z" class="cls-8"/>
   <path id="svg_27" fill="#010101" d="m577.20515,291.57456a4.37916,4.37916 0 0 1 0.68764,-0.49462a2.60578,2.60578 0 0 0 1.84576,-2.95563c-0.25334,-1.36321 -1.37527,-1.8337 -2.61785,-2.11117a33.28405,33.28405 0 0 0 -5.58554,-0.20508c-0.48255,0 -0.72383,0.18096 -0.72383,0.6997c0,2.85912 0,5.73031 0,8.58943c0,0.66351 0.36191,0.73589 0.89272,0.73589s0.92891,-0.06032 0.89272,-0.72383a14.82642,14.82642 0 0 0 0,-1.79751c-0.19302,-1.27876 0.34985,-1.55623 1.55623,-1.52004c2.02672,0 2.85912,1.77338 4.17408,2.7988c1.04955,0.80828 1.9664,1.59242 3.61914,1.07368l-4.74108,-4.08963zm-2.9677,-0.92891c-1.80957,0.2654 -1.5321,-0.84447 -1.68893,-1.99053c-0.3016,-2.12323 1.12193,-1.58036 2.41276,-1.66481c1.10987,0.15683 2.94357,-0.22921 2.85912,1.71306c-0.14477,2.14736 -2.0991,1.72512 -3.58295,1.94227z" class="cls-8"/>
   <path id="svg_28" fill="#020202" d="m337.94361,286.54395a1.94227,1.94227 0 0 0 -3.11246,-0.10857c-1.59242,3.04008 -3.08834,6.12842 -4.60838,9.20469c1.36321,0.567 2.0991,0 2.41276,-1.12193c0.37398,-1.3994 1.29083,-1.64068 2.54546,-1.50798a10.65234,10.65234 0 0 0 2.41276,0a1.9664,1.9664 0 0 1 2.49721,1.59242c0.32572,1.20638 1.134,1.5321 2.41276,1.03749c-1.48385,-3.04008 -3.01595,-6.08016 -4.56012,-9.09611zm-3.84836,5.18744a6.18873,6.18873 0 0 1 0.20508,-0.65145c0.60319,-1.20638 1.20638,-2.49721 1.90608,-3.90867a26.89023,26.89023 0 0 1 2.41276,4.56012l-4.52393,0z" class="cls-9"/>
   <path id="svg_29" fill="#020202" d="m415.22438,286.58014a1.90608,1.90608 0 0 0 -3.20897,0c-1.55623,3.00389 -3.02802,6.0319 -4.57218,9.10818c1.20638,0.31366 2.03878,0.21715 2.34038,-0.9651a2.17149,2.17149 0 0 1 2.81087,-1.71306a8.91516,8.91516 0 0 0 2.19561,0a1.9664,1.9664 0 0 1 2.52134,1.55623c0.3016,1.20638 1.12193,1.5683 2.41276,1.09781c-1.49591,-3.04008 -2.95563,-6.08016 -4.4998,-9.08405zm-3.98106,5.1995l2.31625,-4.82552l2.41276,4.82552l-4.72901,0z" class="cls-9"/>
   <path id="svg_30" fill="#020202" d="m505.0877,286.7611a1.91815,1.91815 0 0 0 -3.30548,-0.19302c-1.5683,3.00389 -3.04008,6.0319 -4.56012,9.08405c1.14606,0.37398 1.99053,0.2654 2.30419,-0.91685a2.17149,2.17149 0 0 1 2.7988,-1.72512a8.36022,8.36022 0 0 0 2.19561,0c1.29083,-0.15683 2.17149,0.16889 2.5334,1.54417c0.3016,1.20638 1.10987,1.58036 2.41276,1.10987c-1.50798,-3.07627 -2.91944,-6.00778 -4.37916,-8.90309zm-4.07757,5.01854c0.74796,-1.5683 1.44766,-3.01595 2.30419,-4.82552l2.41276,4.82552l-4.71695,0z" class="cls-9"/>
  </g>
 </g>
</svg>