<?xml version="1.0" encoding="utf-8"?>
<!-- Generator: Adobe Illustrator 25.0.0, SVG Export Plug-In . SVG Version: 6.00 Build 0)  -->
<svg version="1.1" id="Layer_1" xmlns="http://www.w3.org/2000/svg" xmlns:xlink="http://www.w3.org/1999/xlink" x="0px" y="0px"
	 viewBox="0 0 800 800" style="enable-background:new 0 0 800 800;" xml:space="preserve">
<style type="text/css">
	.st0{fill:#2A3D99;}
	.st1{fill:#F3D338;}
</style>
<g>
	<path class="st0" d="M38.2,341.4c0,22.3,0,43.7,0,65.1c0,29,23.5,52.3,52.3,52.1c28.6-0.2,52-23.6,52-52
		c0.1-34.5-33.9-59.7-67.2-49.8c-1.9,0.6-3.8,1.1-6.2,1.9c0-10.3,0.1-20.1-0.1-29.9c-0.1-4,2.6-4,5.2-4.4c22.8-4,43.9,0,63.2,13
		c1.3,0.9,2.7,1.7,5,3.2c0-8.2,0.3-15.6-0.1-23c-0.2-4.2,1.7-5.7,5.3-6.7c13.7-3.7,24.1,3,25.9,17.3c1.3,11,0.5,22.1,0.5,33.1
		c0,18,0.9,36-0.6,53.9c-3.4,39.6-36,72-73.9,74.9c-43.5,3.3-80.2-21.9-90.8-62.5C0.5,395.9,13,358.8,38.2,341.4z"/>
	<path class="st1" d="M405.3,388.7c14-14.8,28.4-14.2,41.9,1.9c4.1-5.5,8.9-9.9,15.9-11.5c16.3-3.8,29.4,5.5,30.1,22.2
		c0.5,12.4,0.3,24.9,0.1,37.4c-0.1,6.2-2.8,8.4-9.4,8.5c-7.1,0.1-9.9-2.1-10.1-8.5c-0.2-10.2,0-20.4-0.1-30.6
		c-0.1-8.8-3.7-13-11.1-13c-8.3,0-13.3,4.9-13.3,13.2c0,9.8,0.1,19.6,0,29.4c-0.1,7-2.5,9.3-9.1,9.4c-7.6,0.1-10.3-2.1-10.5-9.4
		c-0.2-10,0-20-0.1-30c-0.1-8.8-3.8-12.8-11.4-12.6c-8.1,0.2-12.5,4.8-12.5,13.2c0,9.6,0.1,19.2,0,28.8c-0.1,7.8-2.7,10.2-10.5,10
		c-7-0.1-8.9-2.2-8.9-10.1c0-16.3-0.1-32.7,0.1-49c0-2.9-1.9-7.1,2.8-8.2c4.7-1.1,9.5-1.2,12.9,3.3
		C403.2,384.7,404,386.6,405.3,388.7z"/>
	<path class="st1" d="M601.3,389.2c7-8.6,15.6-12.1,25.9-10.6c11,1.6,18.3,8.7,19.8,19.6c1.9,13.4,1,26.9,0.7,40.4
		c-0.1,6.5-2.9,8.5-9.4,8.6c-7.1,0.1-9.8-1.7-10.2-8.4c-0.5-10-0.3-20-0.3-30c0-5.2-1-10-6.1-12.4c-5.4-2.5-10.8-1.6-15.7,1.9
		c-3,2.1-4.6,4.8-4.5,8.8c0.2,10,0.1,20,0,30c-0.1,7.9-2.5,10.3-10.3,10.2c-7.1-0.1-9.3-2.6-9.4-10.5c0-16.1-0.1-32.3,0.1-48.4
		c0-3.1-2-7.5,3.3-8.5c5-1,9.9-0.9,13.3,3.9C599.6,385.1,600.2,386.9,601.3,389.2z"/>
	<path class="st1" d="M764.3,448.2c-7.5,0.3-14.3-1-20.7-3.8c-5.9-2.6-8.8-7.5-7.9-12.4c1-5.3,4.6-6.7,8.9-3.5
		c6.3,4.7,13.5,6.8,21.3,6.1c3.9-0.3,8.2-1.3,8.7-6.1c0.5-4.9-3.8-5.8-7.3-6.7c-5.5-1.6-11.1-2.6-16.6-4.3
		c-7.9-2.5-13.2-7.7-13.5-16.3c-0.4-8.4,3.2-15.4,11-19c12.4-5.8,25.1-5.3,37.3,0.5c6.1,2.9,8.3,9,5.8,13.6c-2,3.6-4.1,5.8-8.5,2
		c-6.1-5.2-13.4-7.8-21.6-5.5c-2.9,0.8-5.5,2-5.7,5.5c-0.2,3.6,2.3,5,5.2,5.8c6.3,1.7,12.7,3,18.9,5c10.6,3.5,14.8,9.7,14,20.1
		c-0.6,8.6-5.9,13.6-13.5,16.5C775,447.7,769.5,448.5,764.3,448.2z"/>
	<path class="st0" d="M90.9,383c13.2,0.2,23.7,11,23.3,24.1c-0.4,13.1-11.2,23.5-24.4,23.3c-13.6-0.2-23.7-10.8-23.4-24.6
		C66.7,392.6,77.2,382.8,90.9,383z"/>
	<path class="st0" d="M372.5,397.9c-4.2-12.7-16.1-20.1-29.5-19.6c-7.4,0.3-13.6,3.5-19.9,9.6c0-7,0-12.6,0-18.2c0-4.1,0-8.2-2-12
		c-2.7-5.2-7.3-6.5-12.9-5.8c-6.4,0.8-4.9,5.4-4.9,9.3c-0.1,25.1-0.1,50.3,0,75.4c0,5.2,0.8,9.9,7.5,10.6c7.7,0.8,10.2-0.8,12.3-8.2
		c13.9,12.1,30.8,13,42,1.2C376.8,428,377.5,413.1,372.5,397.9z M339.1,432.8c-10.7-0.2-16-6.8-16-20c0-12.5,5.5-18.7,16.4-18.6
		c10.1,0,16.9,7.7,17.1,19.1C356.7,424.6,349.2,433,339.1,432.8z"/>
	<path class="st0" d="M289,365.1c-0.3-8.4-4.5-13-11.4-13.5c-6.1-0.4-8.1,1.4-8.1,7.4c0,9,0,18,0,28.4c-1.6-1.4-2.3-2.1-3-2.7
		c-15.5-12.3-38.7-6.3-46,12.1c-4.4,11-4.3,22.4,0.1,33.5c4.6,11.6,14.8,17.9,27.3,18.2c8.9,0.2,15.5-3.7,21.5-10.8
		c0.8,4.2,1.3,7.7,5.3,9.1c8.5,3,14.4-0.9,14.4-9.9c0.1-14.3,0-28.6,0-42.9C289.1,384.3,289.3,374.7,289,365.1z M253.2,432.8
		c-10.2,0.1-17.3-8-17.2-19.7c0.1-11.5,6.8-18.9,17.2-18.9c11.2,0,16.2,5.7,16.2,18.7C269.5,425.9,264,432.7,253.2,432.8z"/>
	<path class="st1" d="M524.8,418.1c6.5,0.4,13.1,0.1,19.6,0.1c0,0,0,0.1,0,0.1c6.8,0,13.5-0.1,20.3,0c4.6,0.1,6.5-1.7,6.6-6.5
		c0.5-23.8-20.4-39-44.2-32c-13.4,4-22.5,15.9-23.7,31.1c-1.2,15.3,6,28.6,18.7,34.2c13.5,6,34.2,3.8,42.5-4.5
		c0.3-0.3,0.6-0.6,0.8-0.9c3.9-4.5,4-9,0.3-12.5c-4.3-4-7-2-10.6,1.5c-10.1,10-29.3,6.1-33.3-6.5
		C520.9,419.6,520.7,417.9,524.8,418.1z M522,403.4c1.9-6.5,9.1-11.7,16.3-11.5c7.1,0.1,12.6,4.8,14.5,11.7c0.8,3,0.3,4.2-2.9,4.1
		c-4.1-0.1-8.1,0-12.2,0c-4.3,0-8.6-0.1-12.8,0C521.5,407.7,521.2,406,522,403.4z"/>
	<path class="st1" d="M693.7,378.3c-21.5,0-35.6,13.9-35.6,35c0,21.6,13.5,35,35.3,35c21.5,0,36-14,36.1-34.7
		C729.5,393.1,714.5,378.3,693.7,378.3z M693.8,433.3c-10.7,0.1-18.5-8.4-18.5-20.1c0-11.5,7.6-19.4,18.4-19.3
		c10.8,0.1,17.9,8,17.8,19.8C711.4,424.8,703.8,433.2,693.8,433.3z"/>
</g>
</svg>
