<svg xmlns="http://www.w3.org/2000/svg" width="160" height="42" viewBox="0 0 160 42" fill="black"><g clip-path="url(#clip0_658_511)"><path d="M44.5792 17.7326H21.7651V25.1616H36.4868C36.2812 26.2563 35.9052 27.312 35.3723 28.29C34.3776 30.0522 32.7954 31.3861 30.6259 32.2917C28.6802 33.102 26.2257 33.5163 23.2703 33.6028C20.4243 33.5539 17.9768 33.1168 15.9279 32.2917C13.7619 31.4071 12.1771 30.0907 11.1736 28.3425C10.1702 26.5943 9.66844 24.1564 9.66844 21.0289C9.66844 17.9136 10.1658 15.4739 11.1605 13.71C12.1553 11.9461 13.7383 10.6122 15.9095 9.70837C17.8553 8.89807 20.3098 8.48375 23.252 8.39721C26.0981 8.44791 28.5455 8.88496 30.5944 9.70837C31.9744 10.2424 33.2185 11.0763 34.2368 12.1497H45.1037C44.8431 11.4306 44.5347 10.7298 44.1806 10.0519C42.6072 7.05722 40.0575 4.75221 36.5313 3.13687C33.0052 1.52153 28.9057 0.710362 24.2327 0.703369H23.2651C18.6236 0.776794 14.5853 1.53114 11.15 2.96642C7.53476 4.48386 4.7726 6.7067 2.86356 9.63494C0.954519 12.5632 0 16.3612 0 21.0289C0 25.3225 0.786692 28.9657 2.36008 31.9586C3.93346 34.9516 6.48321 37.2566 10.0093 38.8737C13.5355 40.489 17.6289 41.2967 22.2896 41.2967H23.2572C27.8987 41.2232 31.9371 40.4689 35.3723 39.0336C38.9858 37.5144 41.748 35.2916 43.6588 32.3651C45.5696 29.4386 46.5241 25.6406 46.5223 20.9712C46.525 19.8895 46.4698 18.8084 46.3571 17.7326H44.5792Z" fill="black"></path><path d="M97.3424 22.639C96.4207 21.852 95.3798 21.2165 94.2586 20.7561C93.1721 20.2766 92.0142 19.9789 90.8312 19.8751C92.0848 19.6811 93.2626 19.152 94.2402 18.3436C95.2654 17.5354 96.0536 16.4654 96.5216 15.2467C97.0126 13.9242 97.2528 12.5218 97.2297 11.1113C97.2297 7.76873 96.0758 5.30114 93.7682 3.70852C91.4606 2.11591 88.3934 1.32397 84.5665 1.33271H54.9004V40.6673H86.0822C89.2185 40.6673 91.8408 40.2434 93.9491 39.3955C96.0575 38.5476 97.5959 37.295 98.5644 35.6377C99.5347 33.9822 100.02 31.9962 100.02 29.6799C100.037 28.2906 99.8055 26.9095 99.3354 25.6022C98.9389 24.4581 98.2564 23.4345 97.3529 22.6285L97.3424 22.639ZM64.186 8.73024H81.5535C82.9381 8.73024 84.0228 8.87709 84.8078 9.17079C85.573 9.44851 86.2298 9.96291 86.6827 10.6393C87.1448 11.3166 87.3882 12.1192 87.3803 12.939C87.3803 14.4075 86.9843 15.4967 86.1924 16.2064C85.4004 16.9162 84.0735 17.2711 82.2117 17.2711H64.1755L64.186 8.73024ZM89.3601 31.505C88.778 32.1364 88.0258 32.5863 87.1941 32.8004C86.0071 33.1023 84.7839 33.2382 83.5596 33.2042H64.1755V24.5978H83.7562C85.931 24.5978 87.5385 24.9475 88.5787 25.6468C89.6188 26.346 90.1433 27.4352 90.152 28.9142C90.152 30.054 89.8898 30.9228 89.3654 31.5207" fill="black"></path><path d="M147.985 1.32227L134.155 31.3031L120.618 1.32227H108.38V40.6778H117.388V14.4154L129.332 40.6778H138.657L150.945 14.4154V40.6778H160V1.32227H147.985Z" fill="black"></path></g><defs><clipPath id="clip0_658_511"><rect width="160" height="40.5933" fill="black" transform="translate(0 0.703369)"></rect></clipPath></defs></svg>