<?xml version="1.0" encoding="utf-8"?>
<!-- Generator: Adobe Illustrator 25.0.0, SVG Export Plug-In . SVG Version: 6.00 Build 0)  -->
<svg version="1.1" id="Layer_1" xmlns="http://www.w3.org/2000/svg" xmlns:xlink="http://www.w3.org/1999/xlink" x="0px" y="0px"
	 viewBox="0 0 500 500" style="enable-background:new 0 0 500 500;" xml:space="preserve">
<style type="text/css">
	.st0{fill:none;}
	.st1{fill:#1F212B;}
	.st2{fill:#1F212A;}
	.st3{fill:#1F2229;}
	.st4{fill:#20222A;}
	.st5{fill:#30B04B;}
</style>
<g>
	<rect x="-10.4" y="177.9" class="st0" width="520.8" height="144.2"/>
	<path class="st1" d="M359.5,315.2c-1.2-0.1-2.4-0.3-3.5-0.4c-6.3-1-12.6-2.8-18.3-5.8c-5.5-2.9-7.5-6.1-5.7-10.6
		c1.7-4.4,5.3-5.3,11.5-2.9c10,3.8,20.1,5.9,30.8,3.8c2.7-0.5,5.3-1.5,7.5-3.3c5.8-4.8,4.9-12.1-1.9-15.1
		c-7.1-3.1-14.8-4.4-22.1-6.6c-3-0.9-6.1-1.7-9-2.9c-11.6-4.7-16.9-12.6-16.6-24.1c0.3-11.3,7.2-20.9,18.3-24.4
		c14.5-4.6,28.9-3.1,43,2.1c3.8,1.4,5.7,4.4,4.6,8.4c-1.2,4.7-4.7,6.2-9.2,5.1c-8.7-2.1-17.4-3.9-26.4-2.7c-3.4,0.5-6.6,1.4-9.4,3.3
		c-3.4,2.2-5.4,5.4-5.1,9.4c0.3,3.9,2.9,6.5,6.6,7.6c8.9,2.7,17.8,5,26.7,7.9c15.1,4.9,21.8,13.9,20.4,27.2
		C399.3,311.8,376.9,316.9,359.5,315.2z"/>
	<path class="st2" d="M47.4,314.9c-3-0.4-5.8-1.1-8.6-2.6c-3.9-2-7.1-5.2-8.7-9.3c-0.9-2.2-1.4-4.5-1.6-6.8
		c-1.3-17-0.3-34.1-0.5-51.1c-0.1-8.8,0-8.7-8.6-8.9c-2.5,0-5.6,0.9-6.7-2.2c-1.1-2.9,1.5-4.7,3.3-6.4c6.9-6.8,13.8-13.6,20.7-20.4
		c1.5-1.5,3.1-3.3,5.5-2.4c2.9,1,2.4,3.7,2.4,6.1c0.2,11.2,0.2,11.2,11.6,11.2c2.8,0,5.6-0.2,8.3,0.1c4.6,0.4,7.5,2.7,7.2,7.6
		c-0.3,4.5-3,6.6-7.4,6.6c-5.1,0-10.3,0.1-15.4-0.1c-2.8-0.1-4.3,0.4-4.3,3.8c0.1,16.8-0.1,33.7,0.1,50.5c0.1,7,2.9,9.5,9.8,10
		c3.2,0.2,6.3-0.2,9.4-1c4-1.1,7.7-0.3,9.2,4.2c1.6,4.7-1.1,7.3-5.2,9.2c-3.6,1.7-8,2.2-11.9,2.3C53,315.2,50.2,315.2,47.4,314.9z"
		/>
	<path class="st3" d="M168.8,294.9c8.8-22.3,17.1-43.4,25.4-64.5c0.5-1.3,0.8-2.7,1.4-3.9c2.3-4.5,6-6.2,10.8-4.6
		c4.2,1.4,6.3,6.1,4.4,10.7c-4.4,11-9,21.9-13.6,32.8c-5.7,13.7-11.5,27.3-17.1,41c-2.2,5.4-5.9,8.2-11.7,8.2
		c-5.7,0-9.1-3.1-11.2-8.1c-10-23.9-19.9-47.7-29.8-71.6c-2.7-6.4-1.2-11.2,3.7-13.1c4.9-1.8,9.2,0.7,11.7,7
		C151.4,250.4,159.9,272.1,168.8,294.9z"/>
	<path class="st4" d="M107.6,267.8c0,12.1,0,24.1,0,36.2c0,6.9-3.1,10.6-8.4,10.6c-5.3,0-8.2-3.8-8.2-10.7c0-24.1,0-48.3,0-72.4
		c0-7.5,4.2-11.4,10.4-9.9c5,1.2,6.2,4.9,6.2,9.4C107.6,243.2,107.6,255.5,107.6,267.8z"/>
	<path class="st5" d="M469,195.4c5.3,10.8,11.2,21.4,16.9,32c2.1,3.9,3,7.7-1.5,10.3c-4.3,2.5-7.3,0.5-9.7-3.6
		c-5.1-8.7-10.5-17.2-15.9-25.8c-3.3-5.4-3.3-5.3-6.8,0.3c-5.2,8.4-10.4,16.8-15.5,25.3c-2.3,3.9-5.2,6.3-9.7,3.8
		c-4.6-2.6-3.7-6.3-1.6-10.2c5.8-10.8,11.6-21.6,17.1-32.6C445.2,189.4,466.1,189.5,469,195.4z"/>
	<path class="st2" d="M269.1,219.6c-25.2,0-45.7,21.2-45.7,47.4s20.4,47.4,45.7,47.4c25.2,0,45.7-21.2,45.7-47.4
		S294.4,219.6,269.1,219.6z M269.1,299.7c-17.4,0-31.5-14.6-31.5-32.7c0-18.1,14.1-32.7,31.5-32.7s31.5,14.6,31.5,32.7
		C300.7,285,286.5,299.7,269.1,299.7z"/>
	<circle class="st2" cx="99.4" cy="194.4" r="10"/>
</g>
</svg>
